<svg width="236" height="146" viewBox="0 0 236 146" fill="none" xmlns="http://www.w3.org/2000/svg">
<path d="M118.5 145H107.5H106.5L107 143L108 142L109.5 141.5L112.5 138.5L114 137L115 136L115.5 132.5L115 129.5L114 128L109 117L105 110L101.5 105L98.5 101L96.5 98L96 95.5L95.1905 93.5L94.7396 91.5L93.5 92L92.5 93L91.5 95L89 97.5L87.5 98.5L82.5 101L76.5 103.5L72 107L70.5 110L72 114.5L75.5 121L81.5 125L84.5 126L85 127.5L84.5 129L84 129.5L85.5 131L89.5 132L90.5 136.5L91.5 140.5L92.5 144H88.5L88 142.5L83 138L76.5 132L69.5 125L65 121L60.5 116L57.5 111V108L59.5 103L63.5 98.5L67.5 95L70 93.5L70.5 92.5L71 91.5L66.5 90L61.5 86L58.5 80L55.5 73L53 68L49.5 62L45.5 57L41 56L34.5 55L31.5 53.5L29 52L27.5 51L25 52L23 53L20.5 54H18L16 53L13.5 52.5L12 53L9 54H5.5L2 51L1 47.5V44.5L3.5 41L6 39L7.5 36.5L8.5 34L11.5 30L14.5 27L15 25.5L14.5 25V24V23L15 22L16 21.5L17.5 21L19 19.5L20.5 18L21.5 16.5L20.5 16L19.5 14.5L18.5 13L17 11L16 9V7L16.5 5.5L19 9L20.5 11.5L23.5 12.5L24.5 11.5L25.5 10L28.5 8L32.5 7.5L32 6L31.5 4.5L31 3L30.5 2L30 1H30.5H31.5L35 5.5H37.5L39 7L42.5 8L43.5 9H43L42 11L44 12.5L49.5 15L53 16.5L59 17.5H73.5L85 16H96.5L97 16.5H106.5L115 17.5L116.5 19H134L141.5 20L151 19L163.5 18L178 17L187.5 16.5L194.5 15H205L211 16L220 20L227.5 26.5L231.5 33.5L232.5 39.5V71.5L232 72V86L234.5 90.5L234 98.5L234.5 105.5L234 107.5H231L230 103.5V98.5L229 90.5L229.5 82L229 75V59L228.5 54.5L226.5 46L225 55.5L224.5 68.5L223.5 69V84.5L224.5 88L226 91.5L227.5 93.5V100L226.5 101V113L227.5 120.5L228.5 126V131.5L230 132V134.5L227 135.5L226 137L226.5 139L227.5 140V143L226 145H214.5V143.5L218 140L219 135.5L221 133V126.5L220 121L218 114.759L215 108.5L210.5 104L208 101L207 99L206.5 97L204.5 96.5L202.5 101L200.5 107L198.5 115L191.5 120.5L186 125L183 129.5L180 135L176.5 139L174.5 137L172.5 139L172 142L169.5 145H158L160 142L164 140L164.5 137.5L169.5 132L175 128L180.5 122.5L182.5 118L184 114.759L186.5 110L188.5 107V96L188 95H185.5H184.5V97L184 97.5L183.5 100.5L183 101.5L181.256 102.5H180.5L180 101.5L180.5 100.5V98.5V97.5V96.5L179.5 95.2398V94.5L178.5 94H178H177L176.5 94.5L176 96L175.5 96.5V97.5V98.5L175 99L174.5 100.5L173.5 101H172.5L171.5 100V99V98L172 97L172.5 96V94.5V93L171.5 92.5L169.5 91L167.5 90L167 88.5L164 89L162.5 90L157.5 91L151.5 92H140L133.5 91L132 90H127L125.5 89H122.5L121.5 90H111L110.5 91L111.5 93L112.5 95L113.5 98L114.5 101L115.5 105L116.5 110L117.5 115L118.5 118L119.5 122L120.5 126L122 129L122.5 133V136H121L119.5 136.5L119 138.5L120 139.5V143L119.5 144L118.5 145Z" fill="#1C4A2A" stroke="#1C4A2A" stroke-width="2" stroke-linejoin="round"/>
<path d="M149.684 139.046L148.834 138.762H148.268V138.195V137.061L151.099 134.226L154.497 130.256L156.762 126.287L157.894 122.034L157.328 120.899L156.762 119.482L155.912 117.497L153.647 114.378L151.666 111.543L151.382 108.991L150.816 107.573H149.967L146.286 108.991L140.341 111.259L136.661 112.677H129.866L127.884 111.826L123.637 110.409H103.82L100.988 111.826L99.0066 113.811L97.8742 116.079L97.3079 119.765L96.7417 121.183L97.5911 126.287L98.4404 133.375V139.329L97.5911 140.463H97.3079L96.4586 139.896H95.3262V143.299H94.1937L93.6275 144.149H87.399L87.6821 143.299L88.8146 140.747L89.6639 139.046L90.7964 136.21L91.9288 135.076V130.823L91.3626 130.256L90.5132 128.271L89.6639 126.003L88.2483 124.869L87.1159 126.287L86.5497 129.689L86.2666 135.36L85.7003 136.777L84.5679 135.927L83.7185 135.643L82.303 137.628V140.747H75.5083L76.3576 139.329L77.4901 138.195L78.9056 135.927L79.4719 134.226L80.3212 132.808L80.8874 130.54L81.4536 129.122V126.287L80.8874 125.152L80.3212 120.899L79.4719 116.646L79.1887 114.095L78.3394 113.811L76.9238 113.527L73.5265 112.677L69.5629 111.543L66.4487 110.409L61.6358 109.274L56.5397 108.707L49.1788 108.14L44.649 107.573L41.8179 106.723L38.4205 104.738L35.0232 103.037L31.9089 101.335L28.2285 99.0671L25.3974 97.3659L22.5662 95.6646L22 92.2622V88.5762L22.2831 87.4421L23.1325 86.875L23.6987 85.7409L24.2649 86.5915H28.2285L29.644 86.3079L32.7583 84.3232L35.5894 82.9055L37.8543 80.9207L40.1192 78.3689L40.4023 77.5183L40.6854 76.3841L40.1192 75.25L38.9868 72.1311L38.1374 69.5793L36.7219 66.4604L35.0232 63.625L33.8907 61.3567L32.1921 59.6555H32.4752L35.5894 59.372L38.9868 60.2226L41.8179 61.3567L43.2334 62.2073L44.0828 61.9238L44.3659 61.0732V60.2226L43.2334 58.5213L42.6672 57.9543V57.1037L44.0828 56.5366L48.0464 58.2378L50.8775 61.3567L53.7086 63.625H56.8228L60.7864 61.9238L65.3162 60.7896L71.2616 59.6555L75.5083 59.0884L82.303 58.8049L91.6457 58.2378L99.0066 57.3872L104.103 56.8201L107.217 56.253L114.861 54.2683L122.505 53.9848L125.336 53.4177L128.45 52.5671L135.245 52H144.588L151.382 52.5671L158.46 53.1341L166.671 55.686L174.598 59.6555L179.411 63.0579L184.224 67.5945L187.338 72.6982L189.036 76.9512L191.584 77.5183L192.434 78.3689L193 79.2195V80.0701L192.434 80.9207L191.679 82.0549L191.584 82.3384L191.301 82.7637V84.0396L193 84.3232H192.434H191.584H191.018V83.7561V83.189L191.301 82.7637V82.622L191.679 82.0549L191.868 81.4878V80.6372L191.584 80.0701L190.735 79.503L189.603 79.7866L188.187 80.9207L187.621 83.4726L187.055 89.4268V92.8293L185.639 98.7835L183.374 103.887L181.109 107.573L180.543 108.424V109.558L181.392 110.409L181.675 112.11L183.657 114.945L186.205 117.78L187.055 118.631L187.338 119.482V121.75L186.488 124.018L186.205 127.421L185.639 130.54L185.922 133.659L186.205 135.36L187.055 135.927V137.061L186.772 137.628L186.488 138.762L185.922 139.046L184.79 139.613L183.94 139.896L183.374 140.463V141.314L183.657 142.448L183.374 143.299L181.675 143.866L180.543 144.149L179.411 144.716L177.712 145L177.146 144.716L176.296 145L175.73 144.433L176.013 142.448L176.296 141.314L177.429 138.762L178.278 137.061L178.844 135.36L179.127 133.375L179.694 132.241L179.977 131.39L179.694 130.256L179.411 128.838L178.844 127.137C178.75 126.759 178.561 125.946 178.561 125.72C178.561 125.493 177.806 124.869 177.429 124.585L176.863 123.735L176.296 122.884C176.202 122.601 176.013 121.977 176.013 121.75C176.013 121.523 175.636 121.277 175.447 121.183V120.616L174.031 119.765L173.465 119.198L172.333 118.348L171.767 117.78H171.2L170.351 117.497L170.068 117.213L169.785 116.93L169.502 116.363H168.652L168.086 116.646V117.78L168.652 118.064V118.915L168.086 120.049L165.538 123.451L164.406 126.287L162.99 128.555L162.424 130.54L161.575 132.241L161.291 133.375L160.725 134.226L160.442 135.076H160.159L159.593 134.226L159.026 133.659H157.894L157.328 134.226L156.762 135.076L156.195 136.494L155.629 137.628L155.063 139.046H149.684Z" fill="#2D7A45" stroke="#2D7A45" stroke-width="2" stroke-linejoin="round"/>
<path fill-rule="evenodd" clip-rule="evenodd" d="M83.0478 113L85.2218 111.845L86.3925 111.515L87.7304 110.855L89.2355 110.525L90.4061 111.02L91.2423 111.845L92.2457 112.01L91.2423 110.855L91.0751 110.36L91.9113 109.865H93.9181L95.256 110.525L96.2594 110.69L95.0887 109.865L93.4164 109.535V108.875L93.7509 107.554L93.9181 105.739L94.7543 103.924L97.0956 103.099L99.9386 102.274L101.778 101.284L103.618 99.4686L105.29 96.4983L106.294 94.8482L106.795 94.5182C106.684 94.2431 106.461 93.6601 106.461 93.5281C106.461 93.396 107.018 93.143 107.297 93.033V92.0429L106.628 91.5479L107.464 91.2178H108.802L109.805 90.3927L110.14 89.4026V88.0825H111.98L112.648 87.0924L112.816 85.7723L113.819 85.4422L114.154 84.4521L113.819 83.462L113.986 82.802L115.659 81.9769L116.328 81.3168V80.3267L115.324 79.0066V78.5116L116.829 77.3564L117.164 76.6964L116.829 75.8713L115.491 74.7162L116.997 74.3861L117.666 73.8911L118 73.396L117.331 72.571L116.662 71.9109L117.833 70.9208L116.997 69.9307L116.16 69.7657L115.993 67.9505H113.986L114.154 66.6304L113.652 66.3003L112.648 66.4653L111.311 67.2904L109.638 69.1056L108.133 70.9208L106.126 72.901L103.451 74.7162L99.9386 76.0363L97.0956 76.3663L95.0887 76.6964L91.5768 77.0264H90.7406L88.901 76.5314L86.3925 75.2112L84.0512 71.9109L82.0444 69.1056L79.2014 66.9604L77.529 66.3003H76.1911L76.5256 65.4752L77.1945 65.1452V64.8152L76.3584 64.3201L76.1911 63.495L75.1877 63.6601L74.8532 63.33L74.5188 63.6601L74.0171 63.8251L73.5154 63.165V63L73.1809 63.6601L72.8464 63.9901H72.3447V63.495L72.0102 64.3201L71.843 64.6502V64.8152L71.0068 64.9802L70.8396 65.8053V66.4653C70.835 66.4752 70.8303 66.4852 70.8255 66.4952C70.805 66.2346 70.7604 66.1086 70.6724 66.4653C70.5281 67.0499 70.7064 66.7448 70.8255 66.4952C70.8399 66.679 70.8424 66.9297 70.8396 67.1254L70.5051 67.6205L71.1741 68.1155L71.3413 68.2805L70.8396 68.9406L70.0034 69.7657L69.5017 70.7558L69.1672 71.7459L69 71.9109L71.0068 70.9208H71.5085H71.843L71.6758 71.5809L71.5085 72.2409L71.3413 72.736V73.066V73.5611L71.843 74.0561L72.3447 73.5611V72.736L72.6792 72.571L73.0137 73.066L73.1809 73.7261L73.0137 74.7162L72.3447 76.2013L71.5085 78.6766L71.1741 80.9868L71.5085 83.6271L72.0102 86.4323L72.8464 88.2475L73.8498 90.3927L75.1877 92.868L77.0273 94.8482L79.7031 96.6634L82.7133 97.4884L84.8874 99.6337L86.2253 101.944C86.6712 102.439 87.5966 103.429 87.7304 103.429C87.8642 103.429 89.0125 103.759 89.57 103.924L89.9044 104.749L89.0683 106.069L88.7338 107.389L87.7304 109.04L86.3925 110.195L84.5529 110.855L82.5461 111.185L81.5427 111.515H84.3857H84.8874L83.0478 113ZM91.5768 108.875L90.2389 109.7L89.57 109.37L89.4027 109.04L89.57 107.884L90.2389 106.729L90.7406 105.409L91.5768 104.089H93.2491L93.0819 105.409L92.9147 106.399L92.413 107.719L91.5768 108.875Z" fill="#1C4A2A"/>
<path d="M70.8255 66.4952C70.8399 66.679 70.8424 66.9297 70.8396 67.1254L70.5051 67.6205L71.1741 68.1155L71.3413 68.2805L70.8396 68.9406L70.0034 69.7657L69.5017 70.7558L69.1672 71.7459L69 71.9109L71.0068 70.9208H71.5085H71.843L71.6758 71.5809L71.5085 72.2409L71.3413 72.736V73.066V73.5611L71.843 74.0561L72.3447 73.5611V72.736L72.6792 72.571L73.0137 73.066L73.1809 73.7261L73.0137 74.7162L72.3447 76.2013L71.5085 78.6766L71.1741 80.9868L71.5085 83.6271L72.0102 86.4323L72.8464 88.2475L73.8498 90.3927L75.1877 92.868L77.0273 94.8482L79.7031 96.6634L82.7133 97.4884L84.8874 99.6337L86.2253 101.944C86.6712 102.439 87.5966 103.429 87.7304 103.429C87.8642 103.429 89.0125 103.759 89.57 103.924L89.9044 104.749L89.0683 106.069L88.7338 107.389L87.7304 109.04L86.3925 110.195L84.5529 110.855L82.5461 111.185L81.5427 111.515H84.3857H84.8874L83.0478 113L85.2218 111.845L86.3925 111.515L87.7304 110.855L89.2355 110.525L90.4061 111.02L91.2423 111.845L92.2457 112.01L91.2423 110.855L91.0751 110.36L91.9113 109.865H93.9181L95.256 110.525L96.2594 110.69L95.0887 109.865L93.4164 109.535V108.875L93.7509 107.554L93.9181 105.739L94.7543 103.924L97.0956 103.099L99.9386 102.274L101.778 101.284L103.618 99.4686L105.29 96.4983L106.294 94.8482L106.795 94.5182C106.684 94.2431 106.461 93.6601 106.461 93.5281C106.461 93.396 107.018 93.143 107.297 93.033V92.0429L106.628 91.5479L107.464 91.2178H108.802L109.805 90.3927L110.14 89.4026V88.0825H111.98L112.648 87.0924L112.816 85.7723L113.819 85.4422L114.154 84.4521L113.819 83.462L113.986 82.802L115.659 81.9769L116.328 81.3168V80.3267L115.324 79.0066V78.5116L116.829 77.3564L117.164 76.6964L116.829 75.8713L115.491 74.7162L116.997 74.3861L117.666 73.8911L118 73.396L117.331 72.571L116.662 71.9109L117.833 70.9208L116.997 69.9307L116.16 69.7657L115.993 67.9505H113.986L114.154 66.6304L113.652 66.3003L112.648 66.4653L111.311 67.2904L109.638 69.1056L108.133 70.9208L106.126 72.901L103.451 74.7162L99.9386 76.0363L97.0956 76.3663L95.0887 76.6964L91.5768 77.0264H90.7406L88.901 76.5314L86.3925 75.2112L84.0512 71.9109L82.0444 69.1056L79.2014 66.9604L77.529 66.3003H76.1911L76.5256 65.4752L77.1945 65.1452V64.8152L76.3584 64.3201L76.1911 63.495L75.1877 63.6601L74.8532 63.33L74.5188 63.6601L74.0171 63.8251L73.5154 63.165V63L73.1809 63.6601L72.8464 63.9901H72.3447V63.495L72.0102 64.3201L71.843 64.6502V64.8152L71.0068 64.9802L70.8396 65.8053V66.4653C70.835 66.4752 70.8303 66.4852 70.8255 66.4952ZM70.8255 66.4952C70.7064 66.7448 70.5281 67.0499 70.6724 66.4653C70.7604 66.1086 70.805 66.2346 70.8255 66.4952ZM90.2389 109.7L91.5768 108.875L92.413 107.719L92.9147 106.399L93.0819 105.409L93.2491 104.089H91.5768L90.7406 105.409L90.2389 106.729L89.57 107.884L89.4027 109.04L89.57 109.37L90.2389 109.7Z" stroke="#1C4A2A" stroke-width="2" stroke-linejoin="round"/>
</svg>
