<svg width="220" height="79" viewBox="0 0 220 79" fill="none" xmlns="http://www.w3.org/2000/svg">
<path d="M51.8244 75H47.0664H46.6338L46.8501 74.1389L47.2827 73.7083L47.9315 73.4931L49.2291 72.2014L49.8779 71.5556L50.3105 71.125L50.5268 69.6181L50.3105 68.3264L49.8779 67.6806L47.7152 62.9444L45.985 59.9306L44.4711 57.7778L43.1734 56.0556L42.3083 54.7639L42.0921 53.6875L41.7419 52.8264L41.5469 51.9653L41.0107 52.1806L40.5782 52.6111L40.1456 53.4722L39.0642 54.5486L38.4154 54.9792L36.2527 56.0556L33.6574 57.1319L31.7109 58.6389L31.0621 59.9306L31.7109 61.8681L33.2248 64.6667L35.8201 66.3889L37.1178 66.8194L37.334 67.4653L37.1178 68.1111L36.9015 68.3264L37.5503 68.9722L39.2805 69.4028L39.7131 71.3403L40.1456 73.0625L40.5782 74.5694H38.848L38.6317 73.9236L36.4689 71.9861L33.6574 69.4028L30.6295 66.3889L28.6831 64.6667L26.7366 62.5139L25.439 60.3611V59.0694L26.3041 56.9167L28.0343 54.9792L29.7645 53.4722L30.8458 52.8264L31.0621 52.3958L31.2784 51.9653L29.3319 51.3194L27.1692 49.5972L25.8715 47.0139L24.5739 44L23.4925 41.8472L21.9786 39.2639L20.2484 37.1111L18.3019 36.6806L15.4904 36.25L14.1927 35.6042L13.1113 34.9583L12.4625 34.5278L11.3812 34.9583L10.5161 35.3889L9.43469 35.8194H8.35332L7.48822 35.3889L6.40685 35.1736L5.75803 35.3889L4.46039 35.8194H2.94647L1.43255 34.5278L1 33.0208V31.7292L2.08137 30.2222L3.16274 29.3611L3.81156 28.2847L4.24411 27.2083L5.54176 25.4861L6.8394 24.1944L7.05567 23.5486L6.8394 23.3333V22.9028V22.4722L7.05567 22.0417L7.48822 21.8264L8.13704 21.6111L8.78587 20.9653L9.43469 20.3194L9.86724 19.6736L9.43469 19.4583L9.00214 18.8125L8.56959 18.1667L7.92077 17.3056L7.48822 16.4444V15.5833L7.7045 14.9375L8.78587 16.4444L9.43469 17.5208L10.7323 17.9514L11.1649 17.5208L11.5974 16.875L12.8951 16.0139L14.6253 15.7986L14.409 15.1528L14.1927 14.5069L13.9764 13.8611L13.7602 13.4306L13.5439 13H13.7602H14.1927L15.7066 14.9375H16.788L17.4368 15.5833L18.9507 16.0139L19.3833 16.4444H19.167L18.7345 17.3056L19.5996 17.9514L21.9786 19.0278L23.4925 19.6736L26.0878 20.1042H32.3597L37.334 19.4583H42.3083L42.5246 19.6736H46.6338L50.3105 20.1042L50.9593 20.75H58.5289L61.773 21.1806L65.8822 20.75L71.2891 20.3194L77.561 19.8889L81.6702 19.6736L84.6981 19.0278H89.2398L91.8351 19.4583L95.7281 21.1806L98.9722 23.9792L100.702 26.9931L101.135 29.5764V43.3542L100.919 43.5694V49.5972L102 51.5347L101.784 54.9792L102 57.9931L101.784 58.8542H100.486L100.054 57.1319V54.9792L99.621 51.5347L99.8373 47.875L99.621 44.8611V37.9722L99.4047 36.0347L98.5396 32.375L97.8908 36.4653L97.6745 42.0625L97.242 42.2778V48.9514L97.6745 50.4583L98.3233 51.9653L98.9722 52.8264V55.625L98.5396 56.0556V61.2222L98.9722 64.4514L99.4047 66.8194V69.1875L100.054 69.4028V70.4792L98.7559 70.9097L98.3233 71.5556L98.5396 72.4167L98.9722 72.8472V74.1389L98.3233 75H93.349V74.3542L94.863 72.8472L95.2955 70.9097L96.1606 69.8333V67.0347L95.7281 64.6667L94.863 61.9796L93.5653 59.2847L91.6188 57.3472L90.5375 56.0556L90.1049 55.1944L89.8886 54.3333L89.0236 54.1181L88.1585 56.0556L87.2934 58.6389L86.4283 62.0833L83.4004 64.4514L81.0214 66.3889L79.7238 68.3264L78.4261 70.6944L76.9122 72.4167L76.0471 71.5556L75.182 72.4167L74.9657 73.7083L73.8844 75H68.9101L69.7752 73.7083L71.5053 72.8472L71.7216 71.7708L73.8844 69.4028L76.2634 67.6806L78.6424 65.3125L79.5075 63.375L80.1563 61.9796L81.2377 59.9306L82.1028 58.6389V53.9028L81.8865 53.4722H80.8051H80.3726V54.3333L80.1563 54.5486L79.94 55.8403L79.7238 56.2708L78.9693 56.7014H78.6424L78.4261 56.2708L78.6424 55.8403V54.9792V54.5486V54.1181L78.2098 53.5755V53.2569L77.7773 53.0417H77.561H77.1285L76.9122 53.2569L76.6959 53.9028L76.4797 54.1181V54.5486V54.9792L76.2634 55.1944L76.0471 55.8403L75.6146 56.0556H75.182L74.7495 55.625V55.1944V54.7639L74.9657 54.3333L75.182 53.9028V53.2569V52.6111L74.7495 52.3958L73.8844 51.75L73.0193 51.3194L72.803 50.6736L71.5053 50.8889L70.8565 51.3194L68.6938 51.75L66.0985 52.1806H61.1242L58.3126 51.75L57.6638 51.3194H55.5011L54.8522 50.8889H53.5546L53.1221 51.3194H48.5803L48.364 51.75L48.7966 52.6111L49.2291 53.4722L49.6617 54.7639L50.0942 56.0556L50.5268 57.7778L50.9593 59.9306L51.3919 62.0833L51.8244 63.375L52.257 65.0972L52.6895 66.8194L53.3383 68.1111L53.5546 69.8333V71.125H52.9058L52.257 71.3403L52.0407 72.2014L52.4732 72.6319V74.1389L52.257 74.5694L51.8244 75Z" fill="#96C889" stroke="#96C889" stroke-width="2" stroke-linejoin="round"/>
<path d="M189.002 72.375L188.629 72.25H188.381V72V71.5L189.623 70.25L191.113 68.5L192.106 66.75L192.603 64.875L192.354 64.375L192.106 63.75L191.733 62.875L190.74 61.5L189.871 60.25L189.747 59.125L189.498 58.5H189.126L187.512 59.125L184.904 60.125L183.29 60.75H180.31L179.44 60.375L177.578 59.75H168.886L167.644 60.375L166.775 61.25L166.278 62.25L166.03 63.875L165.781 64.5L166.154 66.75L166.526 69.875V72.5L166.154 73H166.03L165.657 72.75H165.161V74.25H164.664L164.416 74.625H161.684L161.808 74.25L162.305 73.125L162.677 72.375L163.174 71.125L163.671 70.625V68.75L163.422 68.5L163.05 67.625L162.677 66.625L162.056 66.125L161.56 66.75L161.311 68.25L161.187 70.75L160.939 71.375L160.442 71L160.07 70.875L159.449 71.75V73.125H156.469L156.841 72.5L157.338 72L157.959 71L158.207 70.25L158.579 69.625L158.828 68.625L159.076 68V66.75L158.828 66.25L158.579 64.375L158.207 62.5L158.083 61.375L157.71 61.25L157.089 61.125L155.599 60.75L153.861 60.25L152.495 59.75L150.384 59.25L148.149 59L144.921 58.75L142.934 58.5L141.692 58.125L140.202 57.25L138.712 56.5L137.346 55.75L135.732 54.75L134.49 54L133.248 53.25L133 51.75V50.125L133.124 49.625L133.497 49.375L133.745 48.875L133.993 49.25H135.732L136.353 49.125L137.719 48.25L138.96 47.625L139.954 46.75L140.947 45.625L141.071 45.25L141.195 44.75L140.947 44.25L140.45 42.875L140.078 41.75L139.457 40.375L138.712 39.125L138.215 38.125L137.47 37.375H137.594L138.96 37.25L140.45 37.625L141.692 38.125L142.313 38.5L142.685 38.375L142.81 38V37.625L142.313 36.875L142.065 36.625V36.25L142.685 36L144.424 36.75L145.666 38.125L146.907 39.125H148.273L150.012 38.375L151.998 37.875L154.606 37.375L156.469 37.125L159.449 37L163.546 36.75L166.775 36.375L169.01 36.125L170.376 35.875L173.728 35L177.081 34.875L178.323 34.625L179.689 34.25L182.669 34H186.767L189.747 34.25L192.851 34.5L196.452 35.625L199.929 37.375L202.04 38.875L204.151 40.875L205.517 43.125L206.262 45L207.379 45.25L207.752 45.625L208 46V46.375L207.752 46.75L207.421 47.25L207.379 47.375L207.255 47.5625V48.125L208 48.25H207.752H207.379H207.131V48V47.75L207.255 47.5625V47.5L207.421 47.25L207.503 47V46.625L207.379 46.375L207.007 46.125L206.51 46.25L205.889 46.75L205.641 47.875L205.392 50.5V52L204.772 54.625L203.778 56.875L202.785 58.5L202.536 58.875V59.375L202.909 59.75L203.033 60.5L203.902 61.75L205.02 63L205.392 63.375L205.517 63.75V64.75L205.144 65.75L205.02 67.25L204.772 68.625L204.896 70L205.02 70.75L205.392 71V71.5L205.268 71.75L205.144 72.25L204.896 72.375L204.399 72.625L204.026 72.75L203.778 73V73.375L203.902 73.875L203.778 74.25L203.033 74.5L202.536 74.625L202.04 74.875L201.295 75L201.046 74.875L200.674 75L200.425 74.75L200.55 73.875L200.674 73.375L201.171 72.25L201.543 71.5L201.791 70.75L201.916 69.875L202.164 69.375L202.288 69L202.164 68.5L202.04 67.875L201.791 67.125C201.75 66.9583 201.667 66.6 201.667 66.5C201.667 66.4 201.336 66.125 201.171 66L200.922 65.625L200.674 65.25C200.632 65.125 200.55 64.85 200.55 64.75C200.55 64.65 200.384 64.5417 200.301 64.5V64.25L199.68 63.875L199.432 63.625L198.935 63.25L198.687 63H198.439L198.066 62.875L197.942 62.75L197.818 62.625L197.694 62.375H197.321L197.073 62.5V63L197.321 63.125V63.5L197.073 64L195.955 65.5L195.459 66.75L194.838 67.75L194.589 68.625L194.217 69.375L194.093 69.875L193.844 70.25L193.72 70.625H193.596L193.348 70.25L193.099 70H192.603L192.354 70.25L192.106 70.625L191.858 71.25L191.609 71.75L191.361 72.375H189.002Z" fill="#96C889"/>
<path d="M188.629 72.25L189.002 72.375H191.361L191.609 71.75L191.858 71.25L192.106 70.625L192.354 70.25L192.603 70H193.099L193.348 70.25L193.596 70.625H193.72L193.844 70.25L194.093 69.875L194.217 69.375L194.589 68.625L194.838 67.75L195.459 66.75L195.955 65.5L197.073 64L197.321 63.5V63.125L197.073 63V62.5L197.321 62.375H197.694L197.818 62.625L197.942 62.75L198.066 62.875L198.439 63H198.687L198.935 63.25L199.432 63.625L199.68 63.875L200.301 64.25V64.5C200.384 64.5417 200.55 64.65 200.55 64.75C200.55 64.85 200.632 65.125 200.674 65.25L200.922 65.625L201.171 66C201.336 66.125 201.667 66.4 201.667 66.5C201.667 66.6 201.75 66.9583 201.791 67.125L202.04 67.875L202.164 68.5L202.288 69L202.164 69.375L201.916 69.875L201.791 70.75L201.543 71.5L201.171 72.25L200.674 73.375L200.55 73.875L200.425 74.75L200.674 75L201.046 74.875L201.295 75L202.04 74.875L202.536 74.625L203.033 74.5L203.778 74.25L203.902 73.875L203.778 73.375V73L204.026 72.75L204.399 72.625L204.896 72.375L205.144 72.25L205.268 71.75L205.392 71.5V71L205.02 70.75L204.896 70L204.772 68.625L205.02 67.25L205.144 65.75L205.517 64.75V63.75L205.392 63.375L205.02 63L203.902 61.75L203.033 60.5L202.909 59.75L202.536 59.375V58.875L202.785 58.5L203.778 56.875L204.772 54.625L205.392 52V50.5L205.641 47.875L205.889 46.75L206.51 46.25L207.007 46.125L207.379 46.375L207.503 46.625V47L207.379 47.375L207.131 47.75V48V48.25H207.379H207.752H208L207.255 48.125V47.5L207.752 46.75L208 46.375V46L207.752 45.625L207.379 45.25L206.262 45L205.517 43.125L204.151 40.875L202.04 38.875L199.929 37.375L196.452 35.625L192.851 34.5L189.747 34.25L186.767 34H182.669L179.689 34.25L178.323 34.625L177.081 34.875L173.728 35L170.376 35.875L169.01 36.125L166.775 36.375L163.546 36.75L159.449 37L156.469 37.125L154.606 37.375L151.998 37.875L150.012 38.375L148.273 39.125H146.907L145.666 38.125L144.424 36.75L142.685 36L142.065 36.25V36.625L142.313 36.875L142.81 37.625V38L142.685 38.375L142.313 38.5L141.692 38.125L140.45 37.625L138.96 37.25L137.594 37.375H137.47L138.215 38.125L138.712 39.125L139.457 40.375L140.078 41.75L140.45 42.875L140.947 44.25L141.195 44.75L141.071 45.25L140.947 45.625L139.954 46.75L138.96 47.625L137.719 48.25L136.353 49.125L135.732 49.25H133.993L133.745 48.875L133.497 49.375L133.124 49.625L133 50.125V51.75L133.248 53.25L134.49 54L135.732 54.75L137.346 55.75L138.712 56.5L140.202 57.25L141.692 58.125L142.934 58.5L144.921 58.75L148.149 59L150.384 59.25L152.495 59.75L153.861 60.25L155.599 60.75L157.089 61.125L157.71 61.25L158.083 61.375L158.207 62.5L158.579 64.375L158.828 66.25L159.076 66.75V68L158.828 68.625L158.579 69.625L158.207 70.25L157.959 71L157.338 72L156.841 72.5L156.469 73.125H159.449V71.75L160.07 70.875L160.442 71L160.939 71.375L161.187 70.75L161.311 68.25L161.56 66.75L162.056 66.125L162.677 66.625L163.05 67.625L163.422 68.5L163.671 68.75V70.625L163.174 71.125L162.677 72.375L162.305 73.125L161.808 74.25L161.684 74.625H164.416L164.664 74.25H165.161V72.75H165.657L166.03 73H166.154L166.526 72.5V69.875L166.154 66.75L165.781 64.5L166.03 63.875L166.278 62.25L166.775 61.25L167.644 60.375L168.886 59.75H177.578L179.44 60.375L180.31 60.75H183.29L184.904 60.125L187.512 59.125L189.126 58.5H189.498L189.747 59.125L189.871 60.25L190.74 61.5L191.733 62.875L192.106 63.75L192.354 64.375L192.603 64.875L192.106 66.75L191.113 68.5L189.623 70.25L188.381 71.5V72V72.25H188.629Z" stroke="#96C889" stroke-width="2" stroke-linejoin="round"/>
<mask id="path-4-outside-1_2003_2" maskUnits="userSpaceOnUse" x="25" y="12" width="193" height="67" fill="black">
<rect fill="white" x="25" y="12" width="193" height="67"/>
<path d="M58.1113 46.9258H40.6797L37.625 54.0312C36.8724 55.7799 36.4961 57.0859 36.4961 57.9492C36.4961 58.6354 36.8171 59.2441 37.459 59.7754C38.123 60.2845 39.5397 60.6165 41.709 60.7715V62H27.5312V60.7715C29.4128 60.4395 30.6302 60.0078 31.1836 59.4766C32.3125 58.4141 33.5632 56.2559 34.9355 53.002L50.7734 15.9473H51.9355L67.6074 53.4004C68.8691 56.4108 70.0091 58.3698 71.0273 59.2773C72.0677 60.1628 73.5065 60.6608 75.3438 60.7715V62H57.5801V60.7715C59.373 60.6829 60.5794 60.3841 61.1992 59.875C61.8411 59.3659 62.1621 58.7461 62.1621 58.0156C62.1621 57.0417 61.7194 55.5033 60.834 53.4004L58.1113 46.9258ZM57.1816 44.4688L49.5449 26.2734L41.709 44.4688H57.1816ZM97.9219 54.0645L107.418 31.5859H117.678V32.8477C116.173 32.8477 115.165 33.0026 114.656 33.3125C114.169 33.6003 113.782 33.9655 113.494 34.4082C113.206 34.8509 113.062 36.2897 113.062 38.7246V54.8613C113.062 56.9642 113.162 58.3255 113.361 58.9453C113.583 59.543 114.014 59.9967 114.656 60.3066C115.32 60.6165 116.327 60.7715 117.678 60.7715V62H102.969V60.7715C104.784 60.7715 106.001 60.4395 106.621 59.7754C107.241 59.0892 107.551 57.4512 107.551 54.8613V36.5664L96.793 62H95.6309L84.6738 36.5664V54.8613C84.6738 56.9642 84.7845 58.3255 85.0059 58.9453C85.2272 59.543 85.6589 59.9967 86.3008 60.3066C86.9427 60.6165 87.9388 60.7715 89.2891 60.7715V62H77.668V60.7715C79.638 60.7715 80.8997 60.4173 81.4531 59.709C82.0065 58.9785 82.2832 57.3626 82.2832 54.8613V38.7246C82.2832 36.3561 82.1615 34.9616 81.918 34.541C81.6745 34.0983 81.2982 33.7109 80.7891 33.3789C80.2799 33.0247 79.2396 32.8477 77.668 32.8477V31.5859H88.3594L97.9219 54.0645ZM124.152 40.2852C126.698 33.888 130.992 30.6895 137.035 30.6895C141.263 30.6895 144.716 32.2721 147.395 35.4375C150.095 38.6029 151.445 42.222 151.445 46.2949C151.445 50.5007 150.084 54.3301 147.361 57.7832C144.639 61.2142 140.953 62.9297 136.305 62.9297C131.568 62.9297 127.96 60.9707 125.48 57.0527C123.001 53.1126 121.762 48.3203 121.762 42.6758C121.762 38.293 122.404 34.209 123.688 30.4238C124.971 26.6165 126.322 23.7721 127.738 21.8906C129.155 20.0091 130.793 18.6367 132.652 17.7734C134.512 16.9102 137.799 16.4564 142.514 16.4121C145.9 16.3678 147.948 16.2682 148.656 16.1133C149.365 15.9583 150.04 15.5156 150.682 14.7852H151.977C151.246 16.9544 150.361 18.5039 149.32 19.4336C148.28 20.3633 147.162 20.9941 145.967 21.3262C144.771 21.6361 142.635 21.8353 139.559 21.9238C136.238 22.0124 133.936 22.2669 132.652 22.6875C131.391 23.0859 130.074 24.082 128.701 25.6758C127.329 27.2474 126.255 29.3171 125.48 31.8848C124.728 34.4525 124.285 37.2526 124.152 40.2852ZM135.906 32.9473C133.693 32.9473 131.878 33.8659 130.461 35.7031C129.044 37.5404 128.336 40.429 128.336 44.3691C128.336 49.7038 129.288 53.7435 131.191 56.4883C133.095 59.2331 135.298 60.6055 137.799 60.6055C140.101 60.6055 141.905 59.6536 143.211 57.75C144.539 55.8242 145.203 52.7585 145.203 48.5527C145.203 44.0814 144.34 40.3626 142.613 37.3965C140.887 34.4303 138.651 32.9473 135.906 32.9473ZM173.127 57.6172C170.006 60.0299 168.047 61.4245 167.25 61.8008C166.055 62.3542 164.782 62.6309 163.432 62.6309C161.329 62.6309 159.591 61.9115 158.219 60.4727C156.868 59.0339 156.193 57.1413 156.193 54.7949C156.193 53.3118 156.525 52.028 157.189 50.9434C158.097 49.4382 159.669 48.0215 161.904 46.6934C164.162 45.3652 167.903 43.7493 173.127 41.8457V40.6504C173.127 37.6178 172.64 35.5371 171.666 34.4082C170.714 33.2793 169.32 32.7148 167.482 32.7148C166.088 32.7148 164.981 33.0911 164.162 33.8438C163.321 34.5964 162.9 35.4596 162.9 36.4336L162.967 38.3594C162.967 39.3776 162.701 40.1634 162.17 40.7168C161.661 41.2702 160.986 41.5469 160.145 41.5469C159.326 41.5469 158.65 41.2591 158.119 40.6836C157.61 40.1081 157.355 39.3223 157.355 38.3262C157.355 36.4225 158.329 34.6738 160.277 33.0801C162.225 31.4863 164.959 30.6895 168.479 30.6895C171.179 30.6895 173.393 31.1432 175.119 32.0508C176.425 32.737 177.388 33.8105 178.008 35.2715C178.406 36.2233 178.605 38.1712 178.605 41.1152V51.4414C178.605 54.3411 178.661 56.123 178.771 56.7871C178.882 57.429 179.059 57.8607 179.303 58.082C179.568 58.3034 179.867 58.4141 180.199 58.4141C180.553 58.4141 180.863 58.3366 181.129 58.1816C181.594 57.8939 182.49 57.0859 183.818 55.7578V57.6172C181.339 60.9375 178.971 62.5977 176.713 62.5977C175.628 62.5977 174.765 62.2214 174.123 61.4688C173.481 60.7161 173.149 59.4323 173.127 57.6172ZM173.127 55.459V43.8711C169.785 45.1992 167.626 46.14 166.652 46.6934C164.904 47.6673 163.653 48.6855 162.9 49.748C162.148 50.8105 161.771 51.9727 161.771 53.2344C161.771 54.8281 162.247 56.1562 163.199 57.2188C164.151 58.2591 165.247 58.7793 166.486 58.7793C168.169 58.7793 170.382 57.6725 173.127 55.459ZM183.918 34.6074L193.281 30.8223H194.543V37.9277C196.115 35.2493 197.686 33.3789 199.258 32.3164C200.852 31.2318 202.523 30.6895 204.271 30.6895C207.326 30.6895 209.872 31.8848 211.908 34.2754C214.41 37.1973 215.66 41.0046 215.66 45.6973C215.66 50.9434 214.155 55.2819 211.145 58.7129C208.665 61.5241 205.544 62.9297 201.781 62.9297C200.143 62.9297 198.727 62.6973 197.531 62.2324C196.646 61.9004 195.65 61.2363 194.543 60.2402V69.5039C194.543 71.5846 194.665 72.9017 194.908 73.4551C195.174 74.0306 195.617 74.4844 196.236 74.8164C196.878 75.1484 198.029 75.3145 199.689 75.3145V76.543H183.752V75.3145H184.582C185.799 75.3366 186.84 75.1042 187.703 74.6172C188.124 74.3737 188.445 73.9753 188.666 73.4219C188.91 72.8906 189.031 71.5182 189.031 69.3047V40.5508C189.031 38.5807 188.943 37.3301 188.766 36.7988C188.589 36.2676 188.301 35.8691 187.902 35.6035C187.526 35.3379 187.006 35.2051 186.342 35.2051C185.811 35.2051 185.135 35.36 184.316 35.6699L183.918 34.6074ZM194.543 39.8867V51.2422C194.543 53.6992 194.643 55.3151 194.842 56.0898C195.152 57.3737 195.904 58.5026 197.1 59.4766C198.317 60.4505 199.844 60.9375 201.682 60.9375C203.895 60.9375 205.688 60.0742 207.061 58.3477C208.854 56.0898 209.75 52.9134 209.75 48.8184C209.75 44.1699 208.732 40.5951 206.695 38.0938C205.279 36.3672 203.596 35.5039 201.648 35.5039C200.586 35.5039 199.535 35.7695 198.494 36.3008C197.697 36.6992 196.38 37.8945 194.543 39.8867Z"/>
</mask>
<path d="M58.1113 46.9258H40.6797L37.625 54.0312C36.8724 55.7799 36.4961 57.0859 36.4961 57.9492C36.4961 58.6354 36.8171 59.2441 37.459 59.7754C38.123 60.2845 39.5397 60.6165 41.709 60.7715V62H27.5312V60.7715C29.4128 60.4395 30.6302 60.0078 31.1836 59.4766C32.3125 58.4141 33.5632 56.2559 34.9355 53.002L50.7734 15.9473H51.9355L67.6074 53.4004C68.8691 56.4108 70.0091 58.3698 71.0273 59.2773C72.0677 60.1628 73.5065 60.6608 75.3438 60.7715V62H57.5801V60.7715C59.373 60.6829 60.5794 60.3841 61.1992 59.875C61.8411 59.3659 62.1621 58.7461 62.1621 58.0156C62.1621 57.0417 61.7194 55.5033 60.834 53.4004L58.1113 46.9258ZM57.1816 44.4688L49.5449 26.2734L41.709 44.4688H57.1816ZM97.9219 54.0645L107.418 31.5859H117.678V32.8477C116.173 32.8477 115.165 33.0026 114.656 33.3125C114.169 33.6003 113.782 33.9655 113.494 34.4082C113.206 34.8509 113.062 36.2897 113.062 38.7246V54.8613C113.062 56.9642 113.162 58.3255 113.361 58.9453C113.583 59.543 114.014 59.9967 114.656 60.3066C115.32 60.6165 116.327 60.7715 117.678 60.7715V62H102.969V60.7715C104.784 60.7715 106.001 60.4395 106.621 59.7754C107.241 59.0892 107.551 57.4512 107.551 54.8613V36.5664L96.793 62H95.6309L84.6738 36.5664V54.8613C84.6738 56.9642 84.7845 58.3255 85.0059 58.9453C85.2272 59.543 85.6589 59.9967 86.3008 60.3066C86.9427 60.6165 87.9388 60.7715 89.2891 60.7715V62H77.668V60.7715C79.638 60.7715 80.8997 60.4173 81.4531 59.709C82.0065 58.9785 82.2832 57.3626 82.2832 54.8613V38.7246C82.2832 36.3561 82.1615 34.9616 81.918 34.541C81.6745 34.0983 81.2982 33.7109 80.7891 33.3789C80.2799 33.0247 79.2396 32.8477 77.668 32.8477V31.5859H88.3594L97.9219 54.0645ZM124.152 40.2852C126.698 33.888 130.992 30.6895 137.035 30.6895C141.263 30.6895 144.716 32.2721 147.395 35.4375C150.095 38.6029 151.445 42.222 151.445 46.2949C151.445 50.5007 150.084 54.3301 147.361 57.7832C144.639 61.2142 140.953 62.9297 136.305 62.9297C131.568 62.9297 127.96 60.9707 125.48 57.0527C123.001 53.1126 121.762 48.3203 121.762 42.6758C121.762 38.293 122.404 34.209 123.688 30.4238C124.971 26.6165 126.322 23.7721 127.738 21.8906C129.155 20.0091 130.793 18.6367 132.652 17.7734C134.512 16.9102 137.799 16.4564 142.514 16.4121C145.9 16.3678 147.948 16.2682 148.656 16.1133C149.365 15.9583 150.04 15.5156 150.682 14.7852H151.977C151.246 16.9544 150.361 18.5039 149.32 19.4336C148.28 20.3633 147.162 20.9941 145.967 21.3262C144.771 21.6361 142.635 21.8353 139.559 21.9238C136.238 22.0124 133.936 22.2669 132.652 22.6875C131.391 23.0859 130.074 24.082 128.701 25.6758C127.329 27.2474 126.255 29.3171 125.48 31.8848C124.728 34.4525 124.285 37.2526 124.152 40.2852ZM135.906 32.9473C133.693 32.9473 131.878 33.8659 130.461 35.7031C129.044 37.5404 128.336 40.429 128.336 44.3691C128.336 49.7038 129.288 53.7435 131.191 56.4883C133.095 59.2331 135.298 60.6055 137.799 60.6055C140.101 60.6055 141.905 59.6536 143.211 57.75C144.539 55.8242 145.203 52.7585 145.203 48.5527C145.203 44.0814 144.34 40.3626 142.613 37.3965C140.887 34.4303 138.651 32.9473 135.906 32.9473ZM173.127 57.6172C170.006 60.0299 168.047 61.4245 167.25 61.8008C166.055 62.3542 164.782 62.6309 163.432 62.6309C161.329 62.6309 159.591 61.9115 158.219 60.4727C156.868 59.0339 156.193 57.1413 156.193 54.7949C156.193 53.3118 156.525 52.028 157.189 50.9434C158.097 49.4382 159.669 48.0215 161.904 46.6934C164.162 45.3652 167.903 43.7493 173.127 41.8457V40.6504C173.127 37.6178 172.64 35.5371 171.666 34.4082C170.714 33.2793 169.32 32.7148 167.482 32.7148C166.088 32.7148 164.981 33.0911 164.162 33.8438C163.321 34.5964 162.9 35.4596 162.9 36.4336L162.967 38.3594C162.967 39.3776 162.701 40.1634 162.17 40.7168C161.661 41.2702 160.986 41.5469 160.145 41.5469C159.326 41.5469 158.65 41.2591 158.119 40.6836C157.61 40.1081 157.355 39.3223 157.355 38.3262C157.355 36.4225 158.329 34.6738 160.277 33.0801C162.225 31.4863 164.959 30.6895 168.479 30.6895C171.179 30.6895 173.393 31.1432 175.119 32.0508C176.425 32.737 177.388 33.8105 178.008 35.2715C178.406 36.2233 178.605 38.1712 178.605 41.1152V51.4414C178.605 54.3411 178.661 56.123 178.771 56.7871C178.882 57.429 179.059 57.8607 179.303 58.082C179.568 58.3034 179.867 58.4141 180.199 58.4141C180.553 58.4141 180.863 58.3366 181.129 58.1816C181.594 57.8939 182.49 57.0859 183.818 55.7578V57.6172C181.339 60.9375 178.971 62.5977 176.713 62.5977C175.628 62.5977 174.765 62.2214 174.123 61.4688C173.481 60.7161 173.149 59.4323 173.127 57.6172ZM173.127 55.459V43.8711C169.785 45.1992 167.626 46.14 166.652 46.6934C164.904 47.6673 163.653 48.6855 162.9 49.748C162.148 50.8105 161.771 51.9727 161.771 53.2344C161.771 54.8281 162.247 56.1562 163.199 57.2188C164.151 58.2591 165.247 58.7793 166.486 58.7793C168.169 58.7793 170.382 57.6725 173.127 55.459ZM183.918 34.6074L193.281 30.8223H194.543V37.9277C196.115 35.2493 197.686 33.3789 199.258 32.3164C200.852 31.2318 202.523 30.6895 204.271 30.6895C207.326 30.6895 209.872 31.8848 211.908 34.2754C214.41 37.1973 215.66 41.0046 215.66 45.6973C215.66 50.9434 214.155 55.2819 211.145 58.7129C208.665 61.5241 205.544 62.9297 201.781 62.9297C200.143 62.9297 198.727 62.6973 197.531 62.2324C196.646 61.9004 195.65 61.2363 194.543 60.2402V69.5039C194.543 71.5846 194.665 72.9017 194.908 73.4551C195.174 74.0306 195.617 74.4844 196.236 74.8164C196.878 75.1484 198.029 75.3145 199.689 75.3145V76.543H183.752V75.3145H184.582C185.799 75.3366 186.84 75.1042 187.703 74.6172C188.124 74.3737 188.445 73.9753 188.666 73.4219C188.91 72.8906 189.031 71.5182 189.031 69.3047V40.5508C189.031 38.5807 188.943 37.3301 188.766 36.7988C188.589 36.2676 188.301 35.8691 187.902 35.6035C187.526 35.3379 187.006 35.2051 186.342 35.2051C185.811 35.2051 185.135 35.36 184.316 35.6699L183.918 34.6074ZM194.543 39.8867V51.2422C194.543 53.6992 194.643 55.3151 194.842 56.0898C195.152 57.3737 195.904 58.5026 197.1 59.4766C198.317 60.4505 199.844 60.9375 201.682 60.9375C203.895 60.9375 205.688 60.0742 207.061 58.3477C208.854 56.0898 209.75 52.9134 209.75 48.8184C209.75 44.1699 208.732 40.5951 206.695 38.0938C205.279 36.3672 203.596 35.5039 201.648 35.5039C200.586 35.5039 199.535 35.7695 198.494 36.3008C197.697 36.6992 196.38 37.8945 194.543 39.8867Z" fill="#1C4A2A"/>
<path d="M58.1113 46.9258L59.955 46.1505L59.4399 44.9258H58.1113V46.9258ZM40.6797 46.9258V44.9258H39.3625L38.8423 46.1359L40.6797 46.9258ZM37.625 54.0312L39.4621 54.8219L39.4624 54.8212L37.625 54.0312ZM37.459 59.7754L36.1838 61.3162L36.2126 61.3399L36.2421 61.3626L37.459 59.7754ZM41.709 60.7715H43.709V58.9092L41.8515 58.7766L41.709 60.7715ZM41.709 62V64H43.709V62H41.709ZM27.5312 62H25.5312V64H27.5312V62ZM27.5312 60.7715L27.1837 58.8019L25.5312 59.0935V60.7715H27.5312ZM31.1836 59.4766L29.8129 58.0202L29.8057 58.0269L29.7985 58.0338L31.1836 59.4766ZM34.9355 53.002L33.0965 52.2159L33.0927 52.2247L34.9355 53.002ZM50.7734 15.9473V13.9473H49.4532L48.9344 15.1612L50.7734 15.9473ZM51.9355 15.9473L53.7805 15.1752L53.2667 13.9473H51.9355V15.9473ZM67.6074 53.4004L65.7624 54.1724L65.7629 54.1735L67.6074 53.4004ZM71.0273 59.2773L69.6966 60.7704L69.7137 60.7856L69.7311 60.8004L71.0273 59.2773ZM75.3438 60.7715H77.3438V58.8883L75.464 58.7751L75.3438 60.7715ZM75.3438 62V64H77.3438V62H75.3438ZM57.5801 62H55.5801V64H57.5801V62ZM57.5801 60.7715L57.4814 58.7739L55.5801 58.8678V60.7715H57.5801ZM61.1992 59.875L59.9564 58.308L59.943 58.3187L59.9297 58.3295L61.1992 59.875ZM60.834 53.4004L58.9904 54.1757L58.9907 54.1765L60.834 53.4004ZM57.1816 44.4688V46.4688H60.1901L59.0258 43.6947L57.1816 44.4688ZM49.5449 26.2734L51.3891 25.4994L49.5686 21.162L47.708 25.4824L49.5449 26.2734ZM41.709 44.4688L39.8721 43.6777L38.6701 46.4688H41.709V44.4688ZM58.1113 46.9258V44.9258H40.6797V46.9258V48.9258H58.1113V46.9258ZM40.6797 46.9258L38.8423 46.1359L35.7876 53.2413L37.625 54.0312L39.4624 54.8212L42.5171 47.7157L40.6797 46.9258ZM37.625 54.0312L35.7879 53.2406C35.0266 55.0096 34.4961 56.6432 34.4961 57.9492H36.4961H38.4961C38.4961 57.5287 38.7182 56.5503 39.4621 54.8219L37.625 54.0312ZM36.4961 57.9492H34.4961C34.4961 59.3589 35.1911 60.4946 36.1838 61.3162L37.459 59.7754L38.7341 58.2346C38.5745 58.1025 38.5205 58.0151 38.506 57.9876C38.4966 57.9699 38.4961 57.9663 38.4961 57.9492H36.4961ZM37.459 59.7754L36.2421 61.3626C36.9078 61.8729 37.7533 62.1637 38.5631 62.3535C39.4117 62.5524 40.4224 62.6847 41.5665 62.7664L41.709 60.7715L41.8515 58.7766C40.8263 58.7033 40.044 58.5922 39.4759 58.459C38.8691 58.3168 38.6742 58.187 38.6758 58.1882L37.459 59.7754ZM41.709 60.7715H39.709V62H41.709H43.709V60.7715H41.709ZM41.709 62V60H27.5312V62V64H41.709V62ZM27.5312 62H29.5312V60.7715H27.5312H25.5312V62H27.5312ZM27.5312 60.7715L27.8788 62.7411C28.8822 62.564 29.774 62.3496 30.5238 62.0838C31.2413 61.8294 31.9931 61.4719 32.5687 60.9193L31.1836 59.4766L29.7985 58.0338C29.8208 58.0125 29.6871 58.1364 29.1871 58.3137C28.7194 58.4795 28.0618 58.6469 27.1837 58.8019L27.5312 60.7715ZM31.1836 59.4766L32.5543 60.933C34.0175 59.5559 35.4015 57.0435 36.7783 53.7792L34.9355 53.002L33.0927 52.2247C31.7248 55.4682 30.6075 57.2722 29.8129 58.0202L31.1836 59.4766ZM34.9355 53.002L36.7746 53.788L52.6125 16.7333L50.7734 15.9473L48.9344 15.1612L33.0965 52.2159L34.9355 53.002ZM50.7734 15.9473V17.9473H51.9355V15.9473V13.9473H50.7734V15.9473ZM51.9355 15.9473L50.0906 16.7193L65.7624 54.1724L67.6074 53.4004L69.4524 52.6284L53.7805 15.1752L51.9355 15.9473ZM67.6074 53.4004L65.7629 54.1735C67.022 57.1776 68.3051 59.5301 69.6966 60.7704L71.0273 59.2773L72.3581 57.7843C71.7132 57.2095 70.7163 55.644 69.452 52.6273L67.6074 53.4004ZM71.0273 59.2773L69.7311 60.8004C71.1997 62.0503 73.1021 62.6401 75.2235 62.7679L75.3438 60.7715L75.464 58.7751C73.9109 58.6815 72.9357 58.2753 72.3236 57.7543L71.0273 59.2773ZM75.3438 60.7715H73.3438V62H75.3438H77.3438V60.7715H75.3438ZM75.3438 62V60H57.5801V62V64H75.3438V62ZM57.5801 62H59.5801V60.7715H57.5801H55.5801V62H57.5801ZM57.5801 60.7715L57.6787 62.7691C58.6526 62.721 59.5403 62.6131 60.3105 62.4223C61.0596 62.2367 61.8369 61.9394 62.4687 61.4205L61.1992 59.875L59.9297 58.3295C59.9417 58.3197 59.806 58.4264 59.3487 58.5396C58.9125 58.6477 58.3005 58.7335 57.4814 58.7739L57.5801 60.7715ZM61.1992 59.875L62.442 61.442C63.4962 60.6059 64.1621 59.4363 64.1621 58.0156H62.1621H60.1621C60.1621 58.0762 60.1518 58.0963 60.1454 58.1086C60.1356 58.1276 60.094 58.1989 59.9564 58.308L61.1992 59.875ZM62.1621 58.0156H64.1621C64.1621 56.5993 63.5636 54.7295 62.6773 52.6243L60.834 53.4004L58.9907 54.1765C59.8752 56.2771 60.1621 57.4841 60.1621 58.0156H62.1621ZM60.834 53.4004L62.6776 52.6251L59.955 46.1505L58.1113 46.9258L56.2677 47.701L58.9904 54.1757L60.834 53.4004ZM57.1816 44.4688L59.0258 43.6947L51.3891 25.4994L49.5449 26.2734L47.7008 27.0474L55.3375 45.2428L57.1816 44.4688ZM49.5449 26.2734L47.708 25.4824L39.8721 43.6777L41.709 44.4688L43.5459 45.2598L51.3818 27.0645L49.5449 26.2734ZM41.709 44.4688V46.4688H57.1816V44.4688V42.4688H41.709V44.4688ZM97.9219 54.0645L96.0815 54.8474L97.9283 59.1887L99.7642 54.8428L97.9219 54.0645ZM107.418 31.5859V29.5859H106.092L105.576 30.8076L107.418 31.5859ZM117.678 31.5859H119.678V29.5859H117.678V31.5859ZM117.678 32.8477V34.8477H119.678V32.8477H117.678ZM114.656 33.3125L115.674 35.0344L115.685 35.0277L115.696 35.0209L114.656 33.3125ZM113.361 58.9453L111.457 59.5573L111.471 59.5989L111.486 59.6399L113.361 58.9453ZM114.656 60.3066L113.787 62.1077L113.799 62.1135L113.81 62.119L114.656 60.3066ZM117.678 60.7715H119.678V58.7715H117.678V60.7715ZM117.678 62V64H119.678V62H117.678ZM102.969 62H100.969V64H102.969V62ZM102.969 60.7715V58.7715H100.969V60.7715H102.969ZM106.621 59.7754L108.083 61.14L108.094 61.1281L108.105 61.116L106.621 59.7754ZM107.551 36.5664H109.551L105.709 35.7873L107.551 36.5664ZM96.793 62V64H98.1186L98.635 62.7791L96.793 62ZM95.6309 62L93.7941 62.7913L94.3148 64H95.6309V62ZM84.6738 36.5664L86.5106 35.7751L82.6738 36.5664H84.6738ZM85.0059 58.9453L83.1224 59.618L83.1263 59.629L83.1304 59.6399L85.0059 58.9453ZM89.2891 60.7715H91.2891V58.7715H89.2891V60.7715ZM89.2891 62V64H91.2891V62H89.2891ZM77.668 62H75.668V64H77.668V62ZM77.668 60.7715V58.7715H75.668V60.7715H77.668ZM81.4531 59.709L83.0292 60.9403L83.0383 60.9286L83.0473 60.9167L81.4531 59.709ZM81.918 34.541L80.1655 35.5049L80.1761 35.5241L80.1871 35.5431L81.918 34.541ZM80.7891 33.3789L79.6469 35.0207L79.6715 35.0378L79.6965 35.0541L80.7891 33.3789ZM77.668 32.8477H75.668V34.8477H77.668V32.8477ZM77.668 31.5859V29.5859H75.668V31.5859H77.668ZM88.3594 31.5859L90.1998 30.803L89.682 29.5859H88.3594V31.5859ZM97.9219 54.0645L99.7642 54.8428L109.26 32.3642L107.418 31.5859L105.576 30.8076L96.0795 53.2861L97.9219 54.0645ZM107.418 31.5859V33.5859H117.678V31.5859V29.5859H107.418V31.5859ZM117.678 31.5859H115.678V32.8477H117.678H119.678V31.5859H117.678ZM117.678 32.8477V30.8477C116.867 30.8477 116.129 30.8888 115.489 30.9871C114.884 31.0803 114.202 31.2479 113.616 31.6041L114.656 33.3125L115.696 35.0209C115.62 35.0672 115.696 35.0024 116.098 34.9406C116.465 34.884 116.984 34.8477 117.678 34.8477V32.8477ZM114.656 33.3125L113.639 31.5906C112.906 32.0239 112.285 32.5986 111.817 33.3182L113.494 34.4082L115.171 35.4982C115.279 35.3324 115.433 35.1766 115.674 35.0344L114.656 33.3125ZM113.494 34.4082L111.817 33.3182C111.552 33.726 111.426 34.1729 111.356 34.4798C111.276 34.8262 111.221 35.2139 111.18 35.6203C111.099 36.4353 111.062 37.479 111.062 38.7246H113.062H115.062C115.062 37.5354 115.098 36.6422 115.16 36.0183C115.192 35.7054 115.226 35.4981 115.255 35.3742C115.292 35.2108 115.292 35.3118 115.171 35.4982L113.494 34.4082ZM113.062 38.7246H111.062V54.8613H113.062H115.062V38.7246H113.062ZM113.062 54.8613H111.062C111.062 55.9385 111.088 56.8577 111.143 57.6054C111.194 58.3111 111.28 59.0072 111.457 59.5573L113.361 58.9453L115.265 58.3333C115.265 58.3334 115.263 58.3271 115.26 58.3133C115.256 58.2996 115.252 58.2804 115.246 58.2549C115.235 58.2034 115.222 58.1337 115.208 58.0431C115.181 57.8604 115.154 57.6197 115.132 57.3135C115.087 56.6999 115.062 55.887 115.062 54.8613H113.062ZM113.361 58.9453L111.486 59.6399C111.909 60.7817 112.739 61.6019 113.787 62.1077L114.656 60.3066L115.526 58.5055C115.29 58.3916 115.257 58.3043 115.237 58.2507L113.361 58.9453ZM114.656 60.3066L113.81 62.119C114.878 62.6171 116.241 62.7715 117.678 62.7715V60.7715V58.7715C116.414 58.7715 115.763 58.616 115.502 58.4943L114.656 60.3066ZM117.678 60.7715H115.678V62H117.678H119.678V60.7715H117.678ZM117.678 62V60H102.969V62V64H117.678V62ZM102.969 62H104.969V60.7715H102.969H100.969V62H102.969ZM102.969 60.7715V62.7715C104.853 62.7715 106.848 62.4633 108.083 61.14L106.621 59.7754L105.159 58.4108C105.183 58.3852 105.101 58.4882 104.717 58.5929C104.337 58.6967 103.769 58.7715 102.969 58.7715V60.7715ZM106.621 59.7754L108.105 61.116C108.789 60.359 109.107 59.3345 109.284 58.404C109.471 57.4147 109.551 56.2207 109.551 54.8613H107.551H105.551C105.551 56.0918 105.476 57.0117 105.353 57.6604C105.219 58.3679 105.073 58.5056 105.137 58.4348L106.621 59.7754ZM107.551 54.8613H109.551V36.5664H107.551H105.551V54.8613H107.551ZM107.551 36.5664L105.709 35.7873L94.951 61.2209L96.793 62L98.635 62.7791L109.393 37.3455L107.551 36.5664ZM96.793 62V60H95.6309V62V64H96.793V62ZM95.6309 62L97.4677 61.2087L86.5106 35.7751L84.6738 36.5664L82.837 37.3577L93.7941 62.7913L95.6309 62ZM84.6738 36.5664H82.6738V54.8613H84.6738H86.6738V36.5664H84.6738ZM84.6738 54.8613H82.6738C82.6738 55.9414 82.702 56.8665 82.7634 57.6215C82.8211 58.3316 82.9185 59.0473 83.1224 59.618L85.0059 58.9453L86.8893 58.2726C86.8908 58.2769 86.8841 58.2585 86.8726 58.2104C86.8613 58.1634 86.8477 58.0979 86.8331 58.0108C86.8036 57.8348 86.7748 57.5998 86.7503 57.2974C86.701 56.6912 86.6738 55.8841 86.6738 54.8613H84.6738ZM85.0059 58.9453L83.1304 59.6399C83.5532 60.7817 84.3835 61.6019 85.4313 62.1077L86.3008 60.3066L87.1703 58.5055C86.9342 58.3916 86.9012 58.3043 86.8814 58.2507L85.0059 58.9453ZM86.3008 60.3066L85.4313 62.1077C86.4913 62.6195 87.8603 62.7715 89.2891 62.7715V60.7715V58.7715C88.0173 58.7715 87.3942 58.6136 87.1703 58.5055L86.3008 60.3066ZM89.2891 60.7715H87.2891V62H89.2891H91.2891V60.7715H89.2891ZM89.2891 62V60H77.668V62V64H89.2891V62ZM77.668 62H79.668V60.7715H77.668H75.668V62H77.668ZM77.668 60.7715V62.7715C78.7537 62.7715 79.761 62.676 80.6323 62.4314C81.4933 62.1897 82.3945 61.7526 83.0292 60.9403L81.4531 59.709L79.8771 58.4777C79.9584 58.3737 79.952 58.4678 79.5513 58.5803C79.1609 58.6899 78.5522 58.7715 77.668 58.7715V60.7715ZM81.4531 59.709L83.0473 60.9167C83.6157 60.1664 83.8909 59.1981 84.047 58.2868C84.2116 57.3255 84.2832 56.1728 84.2832 54.8613H82.2832H80.2832C80.2832 56.0511 80.2165 56.957 80.1044 57.6117C79.9837 58.3162 79.8439 58.5211 79.8589 58.5013L81.4531 59.709ZM82.2832 54.8613H84.2832V38.7246H82.2832H80.2832V54.8613H82.2832ZM82.2832 38.7246H84.2832C84.2832 37.516 84.2525 36.5095 84.1843 35.7284C84.1503 35.3391 84.1042 34.9711 84.0385 34.6445C83.9814 34.3607 83.8774 33.9338 83.6488 33.5389L81.918 34.541L80.1871 35.5431C80.0802 35.3585 80.0829 35.2636 80.1171 35.4336C80.1427 35.5609 80.1726 35.7684 80.1995 36.0763C80.253 36.6898 80.2832 37.5647 80.2832 38.7246H82.2832ZM81.918 34.541L83.6704 33.5772C83.2396 32.7938 82.6103 32.1789 81.8816 31.7037L80.7891 33.3789L79.6965 35.0541C79.9861 35.243 80.1094 35.4028 80.1655 35.5049L81.918 34.541ZM80.7891 33.3789L81.9312 31.7371C81.3223 31.3135 80.5965 31.1167 79.9626 31.0088C79.292 30.8947 78.5174 30.8477 77.668 30.8477V32.8477V34.8477C78.3901 34.8477 78.9215 34.8892 79.2914 34.9521C79.6978 35.0213 79.7467 35.0901 79.6469 35.0207L80.7891 33.3789ZM77.668 32.8477H79.668V31.5859H77.668H75.668V32.8477H77.668ZM77.668 31.5859V33.5859H88.3594V31.5859V29.5859H77.668V31.5859ZM88.3594 31.5859L86.519 32.3689L96.0815 54.8474L97.9219 54.0645L99.7623 53.2815L90.1998 30.803L88.3594 31.5859ZM124.152 40.2852L122.154 40.1976L126.011 41.0246L124.152 40.2852ZM147.395 35.4375L145.868 36.7294L145.873 36.7356L147.395 35.4375ZM147.361 57.7832L148.928 59.0264L148.932 59.0215L147.361 57.7832ZM125.48 57.0527L123.788 58.1179L123.79 58.1222L125.48 57.0527ZM123.688 30.4238L125.582 31.0662L125.583 31.0629L123.688 30.4238ZM127.738 21.8906L126.141 20.6876L127.738 21.8906ZM142.514 16.4121L142.532 18.412L142.54 18.4119L142.514 16.4121ZM150.682 14.7852V12.7852H149.777L149.179 13.4649L150.682 14.7852ZM151.977 14.7852L153.872 15.4234L154.76 12.7852H151.977V14.7852ZM145.967 21.3262L146.469 23.2622L146.485 23.2578L146.502 23.2532L145.967 21.3262ZM139.559 21.9238L139.612 23.9231L139.616 23.923L139.559 21.9238ZM132.652 22.6875L133.255 24.5947L133.265 24.5914L133.275 24.5881L132.652 22.6875ZM128.701 25.6758L130.208 26.9913L130.217 26.9808L128.701 25.6758ZM125.48 31.8848L123.566 31.307L123.563 31.3146L123.561 31.3222L125.48 31.8848ZM143.211 57.75L141.565 56.6145L141.562 56.6186L143.211 57.75ZM124.152 40.2852L126.011 41.0246C127.185 38.0733 128.7 36.0155 130.477 34.6923C132.235 33.3828 134.386 32.6895 137.035 32.6895V30.6895V28.6895C133.641 28.6895 130.624 29.5954 128.088 31.4844C125.57 33.3598 123.665 36.0999 122.294 39.5457L124.152 40.2852ZM137.035 30.6895V32.6895C140.688 32.6895 143.578 34.0232 145.868 36.7294L147.395 35.4375L148.921 34.1456C145.854 30.5211 141.838 28.6895 137.035 28.6895V30.6895ZM147.395 35.4375L145.873 36.7356C148.272 39.5475 149.445 42.709 149.445 46.2949H151.445H153.445C153.445 41.735 151.918 37.6582 148.916 34.1394L147.395 35.4375ZM151.445 46.2949H149.445C149.445 50.0298 148.249 53.4273 145.791 56.5449L147.361 57.7832L148.932 59.0215C151.919 55.2329 153.445 50.9715 153.445 46.2949H151.445ZM147.361 57.7832L145.795 56.54C143.477 59.4601 140.386 60.9297 136.305 60.9297V62.9297V64.9297C141.52 64.9297 145.8 62.9683 148.928 59.0264L147.361 57.7832ZM136.305 62.9297V60.9297C132.235 60.9297 129.274 59.3068 127.171 55.9833L125.48 57.0527L123.79 58.1222C126.646 62.6346 130.9 64.9297 136.305 64.9297V62.9297ZM125.48 57.0527L127.173 55.9876C124.934 52.4284 123.762 48.024 123.762 42.6758H121.762H119.762C119.762 48.6167 121.069 53.7968 123.788 58.1179L125.48 57.0527ZM121.762 42.6758H123.762C123.762 38.4905 124.374 34.6255 125.582 31.0662L123.688 30.4238L121.793 29.7814C120.433 33.7925 119.762 38.0955 119.762 42.6758H121.762ZM123.688 30.4238L125.583 31.0629C126.839 27.3365 128.107 24.7253 129.336 23.0936L127.738 21.8906L126.141 20.6876C124.536 22.819 123.103 25.8966 121.792 29.7848L123.688 30.4238ZM127.738 21.8906L129.336 23.0936C130.585 21.4354 131.975 20.2929 133.495 19.5875L132.652 17.7734L131.81 15.9594C129.611 16.9806 127.725 18.5828 126.141 20.6876L127.738 21.8906ZM132.652 17.7734L133.495 19.5875C134.927 18.9222 137.826 18.4562 142.532 18.412L142.514 16.4121L142.495 14.4122C137.772 14.4565 134.096 14.8981 131.81 15.9594L132.652 17.7734ZM142.514 16.4121L142.54 18.4119C144.244 18.3897 145.629 18.3533 146.687 18.3018C147.689 18.253 148.541 18.1857 149.084 18.0671L148.656 16.1133L148.229 14.1595C148.063 14.1958 147.537 14.2557 146.492 14.3066C145.502 14.3547 144.17 14.3903 142.488 14.4123L142.514 16.4121ZM148.656 16.1133L149.084 18.0671C150.33 17.7944 151.355 17.0482 152.184 16.1054L150.682 14.7852L149.179 13.4649C148.724 13.9831 148.399 14.1223 148.229 14.1595L148.656 16.1133ZM150.682 14.7852V16.7852H151.977V14.7852V12.7852H150.682V14.7852ZM151.977 14.7852L150.081 14.1469C149.398 16.1754 148.654 17.3467 147.988 17.9423L149.32 19.4336L150.653 20.9249C152.067 19.6611 153.094 17.7335 153.872 15.4234L151.977 14.7852ZM149.32 19.4336L147.988 17.9423C147.147 18.6932 146.296 19.159 145.432 19.3991L145.967 21.3262L146.502 23.2532C148.028 22.8293 149.413 22.0334 150.653 20.9249L149.32 19.4336ZM145.967 21.3262L145.465 19.3902C144.513 19.6369 142.585 19.8359 139.501 19.9247L139.559 21.9238L139.616 23.923C142.686 23.8347 145.03 23.6353 146.469 23.2622L145.967 21.3262ZM139.559 21.9238L139.505 19.9245C136.192 20.0129 133.622 20.2653 132.03 20.7869L132.652 22.6875L133.275 24.5881C134.251 24.2685 136.285 24.0118 139.612 23.9231L139.559 21.9238ZM132.652 22.6875L132.05 20.7803C130.283 21.3385 128.67 22.6464 127.186 24.3707L128.701 25.6758L130.217 26.9808C131.477 25.5176 132.499 24.8334 133.255 24.5947L132.652 22.6875ZM128.701 25.6758L127.195 24.3603C125.59 26.1979 124.4 28.5419 123.566 31.307L125.48 31.8848L127.395 32.4625C128.11 30.0922 129.068 28.2969 130.208 26.9913L128.701 25.6758ZM125.48 31.8848L123.561 31.3222C122.758 34.0636 122.293 37.0253 122.154 40.1976L124.152 40.2852L126.15 40.3727C126.277 37.4799 126.698 34.8414 127.4 32.4473L125.48 31.8848ZM135.906 32.9473V30.9473C133.039 30.9473 130.651 32.181 128.877 34.4819L130.461 35.7031L132.045 36.9244C133.104 35.5507 134.347 34.9473 135.906 34.9473V32.9473ZM130.461 35.7031L128.877 34.4819C127.059 36.8397 126.336 40.2666 126.336 44.3691H128.336H130.336C130.336 40.5915 131.03 38.241 132.045 36.9244L130.461 35.7031ZM128.336 44.3691H126.336C126.336 49.8877 127.311 54.4027 129.548 57.6281L131.191 56.4883L132.835 55.3485C131.264 53.0842 130.336 49.5198 130.336 44.3691H128.336ZM131.191 56.4883L129.548 57.6281C131.687 60.713 134.432 62.6055 137.799 62.6055V60.6055V58.6055C136.163 58.6055 134.503 57.7532 132.835 55.3485L131.191 56.4883ZM137.799 60.6055V62.6055C140.762 62.6055 143.182 61.3269 144.86 58.8814L143.211 57.75L141.562 56.6186C140.627 57.9804 139.439 58.6055 137.799 58.6055V60.6055ZM143.211 57.75L144.857 58.8855C146.536 56.4514 147.203 52.8819 147.203 48.5527H145.203H143.203C143.203 52.6351 142.542 55.1971 141.565 56.6145L143.211 57.75ZM145.203 48.5527H147.203C147.203 43.8323 146.292 39.7411 144.342 36.3903L142.613 37.3965L140.885 38.4026C142.387 40.9842 143.203 44.3305 143.203 48.5527H145.203ZM142.613 37.3965L144.342 36.3903C142.361 32.988 139.549 30.9473 135.906 30.9473V32.9473V34.9473C137.754 34.9473 139.412 35.8727 140.885 38.4026L142.613 37.3965ZM173.127 57.6172L175.127 57.5928L175.078 53.5811L171.904 56.0349L173.127 57.6172ZM167.25 61.8008L168.09 63.6157L168.097 63.6125L168.104 63.6093L167.25 61.8008ZM158.219 60.4727L156.76 61.8413L156.766 61.8472L156.772 61.8531L158.219 60.4727ZM157.189 50.9434L158.895 51.9877L158.902 51.9761L157.189 50.9434ZM161.904 46.6934L160.89 44.9695L160.883 44.9739L161.904 46.6934ZM173.127 41.8457L173.812 43.7248L175.127 43.2455V41.8457H173.127ZM171.666 34.4082L170.137 35.6974L170.144 35.7061L170.152 35.7147L171.666 34.4082ZM164.162 33.8438L165.496 35.3342L165.506 35.3254L165.515 35.3164L164.162 33.8438ZM162.9 36.4336H160.9V36.4681L160.902 36.5025L162.9 36.4336ZM162.967 38.3594H164.967V38.3249L164.966 38.2905L162.967 38.3594ZM162.17 40.7168L160.727 39.3317L160.712 39.3471L160.698 39.3627L162.17 40.7168ZM158.119 40.6836L156.621 42.0087L156.635 42.0246L156.65 42.0402L158.119 40.6836ZM175.119 32.0508L174.189 33.8211L174.189 33.8213L175.119 32.0508ZM178.008 35.2715L179.853 34.4992L179.849 34.4904L178.008 35.2715ZM178.771 56.7871L176.799 57.1159L176.801 57.1269L178.771 56.7871ZM179.303 58.082L177.957 59.5619L177.989 59.5909L178.022 59.6185L179.303 58.082ZM181.129 58.1816L182.137 59.9092L182.159 59.896L182.182 59.8822L181.129 58.1816ZM183.818 55.7578H185.818V50.9294L182.404 54.3436L183.818 55.7578ZM183.818 57.6172L185.421 58.8138L185.818 58.2815V57.6172H183.818ZM174.123 61.4688L172.601 62.7666L174.123 61.4688ZM173.127 55.459L174.382 57.0158L175.127 56.4154V55.459H173.127ZM173.127 43.8711H175.127V40.9243L172.388 42.0124L173.127 43.8711ZM166.652 46.6934L167.626 48.4406L167.633 48.4365L167.64 48.4323L166.652 46.6934ZM162.9 49.748L161.268 48.592L162.9 49.748ZM163.199 57.2188L161.71 58.5532L161.717 58.5611L161.724 58.5688L163.199 57.2188ZM173.127 57.6172L171.904 56.0349C170.353 57.2339 169.106 58.1678 168.157 58.8433C167.163 59.5507 166.611 59.8909 166.396 59.9923L167.25 61.8008L168.104 63.6093C168.686 63.3344 169.512 62.7891 170.477 62.102C171.487 61.383 172.78 60.4132 174.35 59.1995L173.127 57.6172ZM167.25 61.8008L166.41 59.9858C165.484 60.4142 164.499 60.6309 163.432 60.6309V62.6309V64.6309C165.065 64.6309 166.625 64.2941 168.09 63.6157L167.25 61.8008ZM163.432 62.6309V60.6309C161.84 60.6309 160.637 60.1106 159.666 59.0922L158.219 60.4727L156.772 61.8531C158.545 63.7124 160.817 64.6309 163.432 64.6309V62.6309ZM158.219 60.4727L159.677 59.104C158.739 58.1044 158.193 56.735 158.193 54.7949H156.193H154.193C154.193 57.5475 154.998 59.9633 156.76 61.8413L158.219 60.4727ZM156.193 54.7949H158.193C158.193 53.6183 158.454 52.7089 158.895 51.9877L157.189 50.9434L155.484 49.8991C154.597 51.3471 154.193 53.0054 154.193 54.7949H156.193ZM157.189 50.9434L158.902 51.9761C159.577 50.8565 160.848 49.6472 162.926 48.4128L161.904 46.6934L160.883 44.9739C158.489 46.3957 156.617 48.0198 155.477 49.9107L157.189 50.9434ZM161.904 46.6934L162.918 48.4172C165.009 47.1873 168.605 45.6224 173.812 43.7248L173.127 41.8457L172.442 39.9666C167.201 41.8763 163.315 43.5431 160.89 44.9695L161.904 46.6934ZM173.127 41.8457H175.127V40.6504H173.127H171.127V41.8457H173.127ZM173.127 40.6504H175.127C175.127 37.5565 174.662 34.8186 173.18 33.1017L171.666 34.4082L170.152 35.7147C170.618 36.2556 171.127 37.6792 171.127 40.6504H173.127ZM171.666 34.4082L173.195 33.119C171.773 31.432 169.753 30.7148 167.482 30.7148V32.7148V34.7148C168.887 34.7148 169.656 35.1266 170.137 35.6974L171.666 34.4082ZM167.482 32.7148V30.7148C165.719 30.7148 164.084 31.1992 162.809 32.3711L164.162 33.8438L165.515 35.3164C165.878 34.983 166.457 34.7148 167.482 34.7148V32.7148ZM164.162 33.8438L162.829 32.3533C161.638 33.4189 160.9 34.7981 160.9 36.4336H162.9H164.9C164.9 36.1212 165.004 35.7738 165.496 35.3342L164.162 33.8438ZM162.9 36.4336L160.902 36.5025L160.968 38.4283L162.967 38.3594L164.966 38.2905L164.899 36.3647L162.9 36.4336ZM162.967 38.3594H160.967C160.967 39.0351 160.796 39.2597 160.727 39.3317L162.17 40.7168L163.613 42.1019C164.606 41.0671 164.967 39.7201 164.967 38.3594H162.967ZM162.17 40.7168L160.698 39.3627C160.615 39.4533 160.5 39.5469 160.145 39.5469V41.5469V43.5469C161.472 43.5469 162.707 43.0871 163.642 42.0709L162.17 40.7168ZM160.145 41.5469V39.5469C159.855 39.5469 159.722 39.4717 159.589 39.327L158.119 40.6836L156.65 42.0402C157.578 43.0465 158.796 43.5469 160.145 43.5469V41.5469ZM158.119 40.6836L159.617 39.3584C159.518 39.2461 159.355 38.9823 159.355 38.3262H157.355H155.355C155.355 39.6622 155.702 40.97 156.621 42.0087L158.119 40.6836ZM157.355 38.3262H159.355C159.355 37.2025 159.9 35.9729 161.544 34.628L160.277 33.0801L159.011 31.5322C156.759 33.3747 155.355 35.6425 155.355 38.3262H157.355ZM160.277 33.0801L161.544 34.628C163.015 33.4239 165.239 32.6895 168.479 32.6895V30.6895V28.6895C164.679 28.6895 161.435 29.5487 159.011 31.5322L160.277 33.0801ZM168.479 30.6895V32.6895C170.973 32.6895 172.838 33.1111 174.189 33.8211L175.119 32.0508L176.05 30.2805C173.947 29.1753 171.385 28.6895 168.479 28.6895V30.6895ZM175.119 32.0508L174.189 33.8213C175.054 34.2759 175.713 34.9821 176.167 36.0526L178.008 35.2715L179.849 34.4904C179.064 32.6389 177.796 31.1981 176.049 30.2803L175.119 32.0508ZM178.008 35.2715L176.163 36.0438C176.246 36.2417 176.372 36.7293 176.466 37.6498C176.557 38.5316 176.605 39.681 176.605 41.1152H178.605H180.605C180.605 39.6054 180.555 38.3089 180.446 37.2428C180.341 36.2153 180.168 35.253 179.853 34.4992L178.008 35.2715ZM178.605 41.1152H176.605V51.4414H178.605H180.605V41.1152H178.605ZM178.605 51.4414H176.605C176.605 54.2706 176.654 56.2496 176.799 57.1159L178.771 56.7871L180.744 56.4583C180.667 55.9965 180.605 54.4117 180.605 51.4414H178.605ZM178.771 56.7871L176.801 57.1269C176.924 57.8447 177.188 58.8627 177.957 59.5619L179.303 58.082L180.648 56.6021C180.737 56.6827 180.789 56.7544 180.814 56.7936C180.839 56.8326 180.845 56.8499 180.838 56.8332C180.831 56.817 180.817 56.7784 180.799 56.7113C180.781 56.6448 180.761 56.5578 180.742 56.4473L178.771 56.7871ZM179.303 58.082L178.022 59.6185C178.631 60.1259 179.379 60.4141 180.199 60.4141V58.4141V56.4141C180.26 56.4141 180.339 56.4251 180.421 56.4556C180.502 56.4856 180.556 56.5232 180.583 56.5456L179.303 58.082ZM180.199 58.4141V60.4141C180.853 60.4141 181.521 60.2682 182.137 59.9092L181.129 58.1816L180.121 56.4541C180.158 56.4327 180.191 56.421 180.212 56.4157C180.232 56.4107 180.23 56.4141 180.199 56.4141V58.4141ZM181.129 58.1816L182.182 59.8822C182.883 59.448 183.949 58.4554 185.233 57.172L183.818 55.7578L182.404 54.3436C181.031 55.7165 180.305 56.3398 180.076 56.4811L181.129 58.1816ZM183.818 55.7578H181.818V57.6172H183.818H185.818V55.7578H183.818ZM183.818 57.6172L182.216 56.4206C179.815 59.6357 177.968 60.5977 176.713 60.5977V62.5977V64.5977C179.974 64.5977 182.863 62.2393 185.421 58.8138L183.818 57.6172ZM176.713 62.5977V60.5977C176.15 60.5977 175.867 60.4316 175.645 60.1709L174.123 61.4688L172.601 62.7666C173.663 64.0111 175.107 64.5977 176.713 64.5977V62.5977ZM174.123 61.4688L175.645 60.1709C175.472 59.9688 175.147 59.285 175.127 57.5928L173.127 57.6172L171.127 57.6416C171.151 59.5796 171.49 61.4635 172.601 62.7666L174.123 61.4688ZM173.127 55.459H175.127V43.8711H173.127H171.127V55.459H173.127ZM173.127 43.8711L172.388 42.0124C169.074 43.3293 166.781 44.32 165.664 44.9544L166.652 46.6934L167.64 48.4323C168.472 47.9599 170.495 47.0691 173.865 45.7297L173.127 43.8711ZM166.652 46.6934L165.679 44.9461C163.796 45.9948 162.261 47.1899 161.268 48.592L162.9 49.748L164.532 50.9041C165.044 50.1812 166.011 49.3398 167.626 48.4406L166.652 46.6934ZM162.9 49.748L161.268 48.592C160.285 49.9809 159.771 51.5446 159.771 53.2344H161.771H163.771C163.771 52.4007 164.011 51.6402 164.532 50.9041L162.9 49.748ZM161.771 53.2344H159.771C159.771 55.2585 160.39 57.0801 161.71 58.5532L163.199 57.2188L164.689 55.8843C164.105 55.2324 163.771 54.3978 163.771 53.2344H161.771ZM163.199 57.2188L161.724 58.5688C162.997 59.9604 164.606 60.7793 166.486 60.7793V58.7793V56.7793C165.888 56.7793 165.305 56.5578 164.675 55.8687L163.199 57.2188ZM166.486 58.7793V60.7793C168.914 60.7793 171.603 59.2572 174.382 57.0158L173.127 55.459L171.871 53.9022C169.161 56.0879 167.423 56.7793 166.486 56.7793V58.7793ZM183.918 34.6074L183.168 32.7532L181.361 33.484L182.045 35.3097L183.918 34.6074ZM193.281 30.8223V28.8223H192.892L192.532 28.968L193.281 30.8223ZM194.543 30.8223H196.543V28.8223H194.543V30.8223ZM194.543 37.9277H192.543V45.2881L196.268 38.9399L194.543 37.9277ZM199.258 32.3164L200.378 33.9733L200.383 33.9698L199.258 32.3164ZM211.908 34.2754L210.386 35.5723L210.389 35.576L211.908 34.2754ZM211.145 58.7129L212.645 60.0357L212.648 60.032L211.145 58.7129ZM197.531 62.2324L198.256 60.3684L198.245 60.364L198.233 60.3598L197.531 62.2324ZM194.543 60.2402L195.881 58.7536L192.543 55.7495V60.2402H194.543ZM194.908 73.4551L193.078 74.2606L193.085 74.2769L193.092 74.2932L194.908 73.4551ZM196.236 74.8164L195.292 76.5794L195.305 76.5862L195.317 76.5928L196.236 74.8164ZM199.689 75.3145H201.689V73.3145H199.689V75.3145ZM199.689 76.543V78.543H201.689V76.543H199.689ZM183.752 76.543H181.752V78.543H183.752V76.543ZM183.752 75.3145V73.3145H181.752V75.3145H183.752ZM184.582 75.3145L184.618 73.3148L184.6 73.3145H184.582V75.3145ZM187.703 74.6172L188.686 76.3591L188.696 76.3536L188.705 76.348L187.703 74.6172ZM188.666 73.4219L186.848 72.5886L186.827 72.6334L186.809 72.6791L188.666 73.4219ZM187.902 35.6035L186.749 37.2374L186.771 37.2528L186.793 37.2676L187.902 35.6035ZM184.316 35.6699L182.444 36.3722L183.148 38.2504L185.024 37.5405L184.316 35.6699ZM194.543 39.8867L193.073 38.5308L192.543 39.1053V39.8867H194.543ZM194.842 56.0898L196.786 55.6206L196.782 55.6061L196.779 55.5918L194.842 56.0898ZM197.1 59.4766L195.836 61.027L195.843 61.0327L195.85 61.0383L197.1 59.4766ZM207.061 58.3477L208.626 59.5921L208.627 59.5914L207.061 58.3477ZM206.695 38.0938L208.246 36.831L208.241 36.8251L206.695 38.0938ZM198.494 36.3008L199.389 38.0896L199.396 38.0858L199.404 38.082L198.494 36.3008ZM183.918 34.6074L184.668 36.4616L194.031 32.6765L193.281 30.8223L192.532 28.968L183.168 32.7532L183.918 34.6074ZM193.281 30.8223V32.8223H194.543V30.8223V28.8223H193.281V30.8223ZM194.543 30.8223H192.543V37.9277H194.543H196.543V30.8223H194.543ZM194.543 37.9277L196.268 38.9399C197.773 36.3744 199.162 34.7951 200.378 33.9733L199.258 32.3164L198.138 30.6595C196.21 31.9627 194.456 34.1243 192.818 36.9156L194.543 37.9277ZM199.258 32.3164L200.383 33.9698C201.68 33.0869 202.965 32.6895 204.271 32.6895V30.6895V28.6895C202.081 28.6895 200.023 29.3767 198.133 30.663L199.258 32.3164ZM204.271 30.6895V32.6895C206.722 32.6895 208.717 33.6134 210.386 35.5723L211.908 34.2754L213.431 32.9785C211.026 30.1561 207.931 28.6895 204.271 28.6895V30.6895ZM211.908 34.2754L210.389 35.576C212.516 38.0604 213.66 41.3723 213.66 45.6973H215.66H217.66C217.66 40.6368 216.303 36.3341 213.428 32.9748L211.908 34.2754ZM215.66 45.6973H213.66C213.66 50.5351 212.284 54.3818 209.641 57.3938L211.145 58.7129L212.648 60.032C216.026 56.182 217.66 51.3516 217.66 45.6973H215.66ZM211.145 58.7129L209.645 57.39C207.547 59.7688 204.973 60.9297 201.781 60.9297V62.9297V64.9297C206.116 64.9297 209.784 63.2794 212.645 60.0357L211.145 58.7129ZM201.781 62.9297V60.9297C200.325 60.9297 199.166 60.7223 198.256 60.3684L197.531 62.2324L196.806 64.0964C198.287 64.6722 199.961 64.9297 201.781 64.9297V62.9297ZM197.531 62.2324L198.233 60.3598C197.678 60.1513 196.896 59.6676 195.881 58.7536L194.543 60.2402L193.205 61.7268C194.403 62.8051 195.614 63.6495 196.829 64.1051L197.531 62.2324ZM194.543 60.2402H192.543V69.5039H194.543H196.543V60.2402H194.543ZM194.543 69.5039H192.543C192.543 70.5753 192.574 71.4923 192.643 72.2363C192.706 72.9164 192.816 73.6651 193.078 74.2606L194.908 73.4551L196.739 72.6496C196.757 72.6917 196.685 72.5052 196.626 71.8682C196.573 71.2951 196.543 70.5133 196.543 69.5039H194.543ZM194.908 73.4551L193.092 74.2932C193.56 75.3067 194.333 76.0656 195.292 76.5794L196.236 74.8164L197.181 73.0534C196.9 72.9031 196.788 72.7545 196.724 72.617L194.908 73.4551ZM196.236 74.8164L195.317 76.5928C196.43 77.1683 198.022 77.3145 199.689 77.3145V75.3145V73.3145C198.036 73.3145 197.326 73.1285 197.155 73.04L196.236 74.8164ZM199.689 75.3145H197.689V76.543H199.689H201.689V75.3145H199.689ZM199.689 76.543V74.543H183.752V76.543V78.543H199.689V76.543ZM183.752 76.543H185.752V75.3145H183.752H181.752V76.543H183.752ZM183.752 75.3145V77.3145H184.582V75.3145V73.3145H183.752V75.3145ZM184.582 75.3145L184.546 77.3141C186.039 77.3413 187.448 77.0573 188.686 76.3591L187.703 74.6172L186.72 72.8752C186.232 73.151 185.56 73.3319 184.618 73.3148L184.582 75.3145ZM187.703 74.6172L188.705 76.348C189.595 75.8331 190.174 75.0371 190.523 74.1647L188.666 73.4219L186.809 72.6791C186.76 72.8009 186.719 72.8597 186.702 72.8811C186.687 72.899 186.687 72.8942 186.701 72.8863L187.703 74.6172ZM188.666 73.4219L190.484 74.2552C190.763 73.6458 190.871 72.8591 190.932 72.1709C191 71.4017 191.031 70.4398 191.031 69.3047H189.031H187.031C187.031 70.3832 187.001 71.2142 186.948 71.8174C186.887 72.5016 186.812 72.6667 186.848 72.5886L188.666 73.4219ZM189.031 69.3047H191.031V40.5508H189.031H187.031V69.3047H189.031ZM189.031 40.5508H191.031C191.031 39.5419 191.009 38.6849 190.96 37.994C190.915 37.3555 190.838 36.6904 190.663 36.1664L188.766 36.7988L186.868 37.4313C186.861 37.4085 186.879 37.4589 186.904 37.627C186.927 37.7834 186.95 37.997 186.97 38.2765C187.009 38.8362 187.031 39.5896 187.031 40.5508H189.031ZM188.766 36.7988L190.663 36.1664C190.37 35.2876 189.841 34.492 189.012 33.9394L187.902 35.6035L186.793 37.2676C186.793 37.2676 186.793 37.2675 186.793 37.2673C186.792 37.2671 186.792 37.2669 186.792 37.2665C186.791 37.2659 186.79 37.2653 186.79 37.2648C186.788 37.2637 186.791 37.2655 186.796 37.2725C186.805 37.2862 186.835 37.3318 186.868 37.4313L188.766 36.7988ZM187.902 35.6035L189.056 33.9696C188.223 33.3816 187.244 33.2051 186.342 33.2051V35.2051V37.2051C186.545 37.2051 186.67 37.2258 186.735 37.2425C186.798 37.2584 186.79 37.2664 186.749 37.2374L187.902 35.6035ZM186.342 35.2051V33.2051C185.462 33.2051 184.527 33.452 183.609 33.7993L184.316 35.6699L185.024 37.5405C185.744 37.268 186.159 37.2051 186.342 37.2051V35.2051ZM184.316 35.6699L186.189 34.9677L185.791 33.9052L183.918 34.6074L182.045 35.3097L182.444 36.3722L184.316 35.6699ZM194.543 39.8867H192.543V51.2422H194.543H196.543V39.8867H194.543ZM194.543 51.2422H192.543C192.543 53.6507 192.632 55.5257 192.905 56.5879L194.842 56.0898L196.779 55.5918C196.653 55.1045 196.543 53.7477 196.543 51.2422H194.543ZM194.842 56.0898L192.898 56.5591C193.327 58.3366 194.361 59.8249 195.836 61.027L197.1 59.4766L198.363 57.9261C197.448 57.1803 196.977 56.4108 196.786 55.6206L194.842 56.0898ZM197.1 59.4766L195.85 61.0383C197.483 62.3446 199.475 62.9375 201.682 62.9375V60.9375V58.9375C200.214 58.9375 199.151 58.5565 198.349 57.9148L197.1 59.4766ZM201.682 60.9375V62.9375C204.502 62.9375 206.873 61.7981 208.626 59.5921L207.061 58.3477L205.495 57.1032C204.504 58.3504 203.288 58.9375 201.682 58.9375V60.9375ZM207.061 58.3477L208.627 59.5914C210.798 56.8578 211.75 53.1795 211.75 48.8184H209.75H207.75C207.75 52.6473 206.909 55.3219 205.494 57.1039L207.061 58.3477ZM209.75 48.8184H211.75C211.75 43.9078 210.677 39.8171 208.246 36.831L206.695 38.0938L205.144 39.3565C206.786 41.373 207.75 44.4321 207.75 48.8184H209.75ZM206.695 38.0938L208.241 36.8251C206.507 34.7117 204.287 33.5039 201.648 33.5039V35.5039V37.5039C202.906 37.5039 204.05 38.0227 205.149 39.3624L206.695 38.0938ZM201.648 35.5039V33.5039C200.239 33.5039 198.878 33.8591 197.585 34.5196L198.494 36.3008L199.404 38.082C200.191 37.68 200.933 37.5039 201.648 37.5039V35.5039ZM198.494 36.3008L197.6 34.5119C196.946 34.8386 196.252 35.3911 195.565 36.0151C194.846 36.6674 194.013 37.5112 193.073 38.5308L194.543 39.8867L196.013 41.2426C196.91 40.2701 197.654 39.5201 198.253 38.9771C198.882 38.4057 199.245 38.1614 199.389 38.0896L198.494 36.3008Z" fill="#1C4A2A" mask="url(#path-4-outside-1_2003_2)"/>
<path fill-rule="evenodd" clip-rule="evenodd" d="M187.167 31L188.276 30.3993L188.874 30.2277L189.556 29.8845L190.324 29.7129L190.922 29.9703L191.348 30.3993L191.86 30.4851L191.348 29.8845L191.263 29.6271L191.689 29.3696H192.713L193.396 29.7129L193.908 29.7987L193.311 29.3696L192.457 29.198V28.8548L192.628 28.1683L192.713 27.2244L193.14 26.2805L194.334 25.8515L195.785 25.4224L196.724 24.9076L197.662 23.9637L198.515 22.4191L199.027 21.5611L199.283 21.3894C199.226 21.2464 199.113 20.9432 199.113 20.8746C199.113 20.8059 199.397 20.6744 199.539 20.6172V20.1023L199.198 19.8449L199.625 19.6733H200.307L200.819 19.2442L200.99 18.7294V18.0429H201.928L202.27 17.5281L202.355 16.8416L202.867 16.67L203.038 16.1551L202.867 15.6403L202.952 15.297L203.805 14.868L204.147 14.5248V14.0099L203.635 13.3234V13.066L204.403 12.4653L204.573 12.1221L204.403 11.6931L203.72 11.0924L204.488 10.9208L204.829 10.6634L205 10.4059L204.659 9.9769L204.317 9.63366L204.915 9.11881L204.488 8.60396L204.061 8.51815L203.976 7.57426H202.952L203.038 6.88779L202.782 6.71617L202.27 6.80198L201.587 7.23102L200.734 8.17492L199.966 9.11881L198.942 10.1485L197.577 11.0924L195.785 11.7789L194.334 11.9505L193.311 12.1221L191.519 12.2937H191.092L190.154 12.0363L188.874 11.3498L187.679 9.63366L186.655 8.17492L185.205 7.05941L184.352 6.71617H183.669L183.84 6.28713L184.181 6.11551V5.94389L183.754 5.68647L183.669 5.25743L183.157 5.34323L182.986 5.17162L182.816 5.34323L182.56 5.42904L182.304 5.08581V5L182.133 5.34323L181.962 5.51485H181.706V5.25743L181.536 5.68647L181.451 5.85809V5.94389L181.024 6.0297L180.939 6.45875V6.80198C180.936 6.80709 180.934 6.81229 180.931 6.81753C180.921 6.68198 180.898 6.61648 180.853 6.80198C180.78 7.10596 180.871 6.94732 180.931 6.81753C180.939 6.91307 180.94 7.04343 180.939 7.14521L180.768 7.40264L181.109 7.66007L181.195 7.74587L180.939 8.08911L180.512 8.51815L180.256 9.033L180.085 9.54785L180 9.63366L181.024 9.11881H181.28H181.451L181.365 9.46205L181.28 9.80528L181.195 10.0627V10.2343V10.4917L181.451 10.7492L181.706 10.4917V10.0627L181.877 9.9769L182.048 10.2343L182.133 10.5776L182.048 11.0924L181.706 11.8647L181.28 13.1518L181.109 14.3531L181.28 15.7261L181.536 17.1848L181.962 18.1287L182.474 19.2442L183.157 20.5314L184.096 21.5611L185.461 22.505L186.997 22.934L188.106 24.0495L188.788 25.2508C189.016 25.5082 189.488 26.0231 189.556 26.0231C189.625 26.0231 190.21 26.1947 190.495 26.2805L190.666 26.7096L190.239 27.396L190.068 28.0825L189.556 28.9406L188.874 29.5413L187.935 29.8845L186.911 30.0561L186.399 30.2277H187.85H188.106L187.167 31ZM191.519 28.8548L190.836 29.2838L190.495 29.1122L190.41 28.9406L190.495 28.3399L190.836 27.7393L191.092 27.0528L191.519 26.3663H192.372L192.287 27.0528L192.201 27.5677L191.945 28.2541L191.519 28.8548Z" fill="#96C889"/>
<path d="M180.931 6.81753C180.939 6.91307 180.94 7.04343 180.939 7.14521L180.768 7.40264L181.109 7.66007L181.195 7.74587L180.939 8.08911L180.512 8.51815L180.256 9.033L180.085 9.54785L180 9.63366L181.024 9.11881H181.28H181.451L181.365 9.46205L181.28 9.80528L181.195 10.0627V10.2343V10.4917L181.451 10.7492L181.706 10.4917V10.0627L181.877 9.9769L182.048 10.2343L182.133 10.5776L182.048 11.0924L181.706 11.8647L181.28 13.1518L181.109 14.3531L181.28 15.7261L181.536 17.1848L181.962 18.1287L182.474 19.2442L183.157 20.5314L184.096 21.5611L185.461 22.505L186.997 22.934L188.106 24.0495L188.788 25.2508C189.016 25.5082 189.488 26.0231 189.556 26.0231C189.625 26.0231 190.21 26.1947 190.495 26.2805L190.666 26.7096L190.239 27.396L190.068 28.0825L189.556 28.9406L188.874 29.5413L187.935 29.8845L186.911 30.0561L186.399 30.2277H187.85H188.106L187.167 31L188.276 30.3993L188.874 30.2277L189.556 29.8845L190.324 29.7129L190.922 29.9703L191.348 30.3993L191.86 30.4851L191.348 29.8845L191.263 29.6271L191.689 29.3696H192.713L193.396 29.7129L193.908 29.7987L193.311 29.3696L192.457 29.198V28.8548L192.628 28.1683L192.713 27.2244L193.14 26.2805L194.334 25.8515L195.785 25.4224L196.724 24.9076L197.662 23.9637L198.515 22.4191L199.027 21.5611L199.283 21.3894C199.226 21.2464 199.113 20.9432 199.113 20.8746C199.113 20.8059 199.397 20.6744 199.539 20.6172V20.1023L199.198 19.8449L199.625 19.6733H200.307L200.819 19.2442L200.99 18.7294V18.0429H201.928L202.27 17.5281L202.355 16.8416L202.867 16.67L203.038 16.1551L202.867 15.6403L202.952 15.297L203.805 14.868L204.147 14.5248V14.0099L203.635 13.3234V13.066L204.403 12.4653L204.573 12.1221L204.403 11.6931L203.72 11.0924L204.488 10.9208L204.829 10.6634L205 10.4059L204.659 9.9769L204.317 9.63366L204.915 9.11881L204.488 8.60396L204.061 8.51815L203.976 7.57426H202.952L203.038 6.88779L202.782 6.71617L202.27 6.80198L201.587 7.23102L200.734 8.17492L199.966 9.11881L198.942 10.1485L197.577 11.0924L195.785 11.7789L194.334 11.9505L193.311 12.1221L191.519 12.2937H191.092L190.154 12.0363L188.874 11.3498L187.679 9.63366L186.655 8.17492L185.205 7.05941L184.352 6.71617H183.669L183.84 6.28713L184.181 6.11551V5.94389L183.754 5.68647L183.669 5.25743L183.157 5.34323L182.986 5.17162L182.816 5.34323L182.56 5.42904L182.304 5.08581V5L182.133 5.34323L181.962 5.51485H181.706V5.25743L181.536 5.68647L181.451 5.85809V5.94389L181.024 6.0297L180.939 6.45875V6.80198C180.936 6.80709 180.934 6.81229 180.931 6.81753ZM180.931 6.81753C180.871 6.94732 180.78 7.10596 180.853 6.80198C180.898 6.61648 180.921 6.68198 180.931 6.81753ZM190.836 29.2838L191.519 28.8548L191.945 28.2541L192.201 27.5677L192.287 27.0528L192.372 26.3663H191.519L191.092 27.0528L190.836 27.7393L190.495 28.3399L190.41 28.9406L190.495 29.1122L190.836 29.2838Z" stroke="#96C889" stroke-width="0.5" stroke-linejoin="round"/>
</svg>
