<svg width="50" height="50" viewBox="0 0 50 50" fill="none" xmlns="http://www.w3.org/2000/svg">
<path d="M37.5 12.7229L25.119 25.0892V37.5743L37.5 25.0892L50 12.7229H37.5Z" fill="#FFCF01"/>
<path d="M25.119 37.5743L12.619 25.0892H0L25.119 50V37.5743Z" fill="#FFCF01"/>
<path d="M25.119 12.4851L12.619 0H0L12.619 12.7229L25.119 25.0892V12.4851Z" fill="#FFCF01"/>
<path d="M37.5 0H25.119V12.4851L37.5 0Z" fill="#FFCF01"/>
<path d="M37.5 12.7229V0L25.119 12.4851V25.0892L37.5 12.7229Z" fill="#186730"/>
<path d="M25.119 0H12.619L25.119 12.4851V0Z" fill="#186730"/>
<path d="M12.619 12.7229V25.0892L25.119 37.5743V25.0892L12.619 12.7229Z" fill="#186730"/>
<path d="M37.5 37.2771V25.0892L25.119 37.5743V50L37.5 37.2771Z" fill="#186730"/>
</svg>
